<svg width="213" height="208" viewBox="0 0 213 208" fill="none" xmlns="http://www.w3.org/2000/svg">
<g clip-path="url(#clip0_1018_2082)">
<path d="M173.333 115.284C171.559 106.616 169.882 98.4293 170.454 92.3008C172.329 72.2092 161.872 61.3102 152.77 55.7048C152.125 55.3078 151.317 55.1431 150.528 55.2488C145.909 55.8643 134.244 57.7497 125.702 61.9526C124.388 62.5991 123.86 63.9706 124.475 65.1408C125.14 66.4073 125.733 67.7111 126.24 69.015C127.307 71.7633 128.093 74.7149 128.574 77.787C128.92 80.0004 128.077 82.2135 126.26 83.8582C124.42 85.5235 121.818 86.4034 119.106 86.2785C114.79 86.0754 111.238 83.2874 110.66 79.6487C110.26 77.1276 109.691 74.9606 108.969 73.2074C107.937 70.7023 106.575 68.5325 104.923 66.7569C104.908 66.7419 104.894 66.7262 104.879 66.7112C104.836 66.6672 104.795 66.6219 104.754 66.5772L104.723 66.5427C104.708 66.5266 104.693 66.5106 104.677 66.4945C100.862 62.5534 96.3501 61.357 93.2881 60.7998C90.7765 60.3427 87.3495 59.9677 83.1022 59.6844C81.7636 59.5964 80.5159 60.266 80.0519 61.3256C77.1786 67.8912 76.2046 73.6651 76.1925 73.7363C75.6015 77.4629 71.7836 80.2733 67.3112 80.2733C66.9112 80.2733 66.5054 80.2509 66.1059 80.2059C61.1969 79.6568 57.7367 75.8496 58.3913 71.7207C58.4178 71.5553 59.0575 67.6072 60.8613 62.2059C60.8692 62.1825 60.8767 62.1584 60.8833 62.1364C60.9431 61.9355 60.9689 61.7342 60.9701 61.5356C61.1022 61.3552 61.2169 61.1634 61.2929 60.9523V60.9519C61.2941 60.9488 61.2949 60.9463 61.2962 60.9432L61.341 60.8172C61.4258 60.5779 61.4661 60.3358 61.4665 60.0982C61.4669 59.0131 60.6254 58.0111 59.3241 57.6852C57.8854 57.3251 56.3831 57.9165 55.7621 59.0225C55.6338 59.0229 55.5034 59.0232 55.3763 59.0239C54.6129 59.027 53.8802 59.2748 53.3265 59.7161C42.3348 68.4871 35.7632 83.0857 36.1765 97.8135C36.1811 97.9642 36.1886 98.1153 36.1969 98.267C36.2052 98.4219 36.2147 98.5769 36.2143 98.7325C36.1985 108.618 40.0833 119.746 47.4486 130.915C54.5024 141.61 64.2389 151.643 75.6056 159.928C85.0647 166.822 95.4168 172.244 105.543 175.609C114.019 178.426 122.281 179.841 130.2 179.841C132.79 179.841 135.343 179.69 137.856 179.386C152.628 177.602 162.941 173.117 169.384 165.675C180.923 152.349 176.891 132.657 173.333 115.284Z" fill="#CCCCCC"/>
<path d="M42.9936 71.7218C42.339 75.8507 45.7997 79.6579 50.7082 80.207C51.1078 80.252 51.5136 80.2744 51.9136 80.2744C55.1375 80.2744 58.0137 78.81 59.5937 76.5987C58.5836 75.1825 58.1122 73.482 58.3917 71.7214C58.4179 71.5561 59.0579 67.6079 60.8617 62.2066C60.8696 62.1832 60.8771 62.1592 60.8838 62.1372C60.9436 61.9362 60.9693 61.7349 60.9706 61.5364C61.1027 61.356 61.2173 61.1641 61.2933 60.953V60.9527C61.2945 60.9495 61.2954 60.9471 61.2966 60.944L61.3415 60.818C61.4262 60.5787 61.4665 60.3365 61.4669 60.0989C61.4673 59.0138 60.6258 58.0118 59.3246 57.6859C57.8858 57.3259 56.3835 57.9173 55.7626 59.0233C55.6342 59.0236 55.5038 59.024 55.3767 59.0247C54.6133 59.0278 53.8806 59.2755 53.327 59.7169C49.2242 62.9906 45.7386 67.0766 43.0007 71.6778C42.9973 71.6981 42.9944 71.7148 42.9936 71.7218Z" fill="#E2E2E2"/>
<path d="M89.2789 66.4956C89.2942 66.5113 89.3096 66.5273 89.3246 66.5437L89.3561 66.5783C89.3972 66.6229 89.4384 66.6683 89.4811 66.7122C89.4961 66.7273 89.5102 66.7426 89.5248 66.758C91.1778 68.5332 92.5389 70.7033 93.571 73.2084C94.2933 74.9616 94.8624 77.1286 95.2623 79.6498C95.8397 83.2884 99.3917 86.0765 103.708 86.2795C106.42 86.4044 109.022 85.5245 110.862 83.8592C111.273 83.4876 111.631 83.0854 111.939 82.6622C111.284 81.7665 110.834 80.7481 110.66 79.6498C110.26 77.1286 109.691 74.9616 108.969 73.2084C107.937 70.7033 106.576 68.5335 104.923 66.758C104.908 66.743 104.894 66.7273 104.879 66.7122C104.836 66.6683 104.795 66.6229 104.754 66.5783L104.723 66.5437C104.708 66.5277 104.693 66.5116 104.677 66.4956C100.862 62.5544 96.3501 61.358 93.2882 60.8009C90.7766 60.3438 87.3496 59.9687 83.1023 59.6854C81.784 59.5989 80.5574 60.2492 80.0773 61.2806C82.8871 62.0126 86.2946 63.4127 89.2789 66.4956Z" fill="#E2E2E2"/>
<path d="M173.334 115.284C171.559 106.616 169.882 98.4292 170.454 92.3008C172.329 72.2091 161.872 61.3102 152.77 55.7048C152.125 55.3078 151.317 55.1431 150.528 55.2488C148.235 55.5545 144.205 56.1734 139.683 57.2334C148.142 63.2069 156.773 73.8947 155.056 92.3008C154.484 98.4292 156.161 106.616 157.935 115.284C161.493 132.657 165.525 152.349 153.987 165.676C147.544 173.117 137.23 177.602 122.459 179.386C122.438 179.389 122.417 179.391 122.396 179.393C125.031 179.69 127.634 179.841 130.202 179.841C132.792 179.841 135.345 179.69 137.858 179.386C152.629 177.602 162.942 173.117 169.385 165.676C180.923 152.349 176.891 132.657 173.334 115.284Z" fill="#E2E2E2"/>
<path d="M103.873 142.784C95.2034 137.818 88.9121 132.203 84.3566 126.816H91.9956C93.6508 126.816 94.9928 125.689 94.9928 124.298C94.9928 122.908 93.6508 121.781 91.9956 121.781H80.5226C78.563 118.91 77.0756 116.196 75.9575 113.793C71.8555 104.979 71.6184 98.2747 71.6167 98.208C71.5802 96.8198 70.2137 95.72 68.559 95.7466C66.9042 95.7752 65.5896 96.9248 65.6237 98.3155C65.6304 98.5922 65.8214 104.676 69.2696 113.095C67.1044 118.325 65.7076 127.701 65.6457 128.122C65.4426 129.502 66.6102 130.759 68.2524 130.929C68.3774 130.942 68.5012 130.949 68.6237 130.949C70.1153 130.949 71.4074 130.014 71.5947 128.74C71.8261 127.167 72.3768 123.975 73.1153 120.821C73.985 122.291 74.9711 123.819 76.0858 125.382C76.1706 125.53 76.2715 125.671 76.3878 125.802C79.0041 129.41 82.3094 133.198 86.4861 136.925C86.2273 139.366 85.7966 144.83 86.678 148.114C86.992 149.284 88.2285 150.079 89.5995 150.079C89.8176 150.079 90.0394 150.059 90.2612 150.017C91.876 149.711 92.8899 148.363 92.526 147.007C92.1639 145.658 92.1057 143.559 92.1713 141.528C94.6937 143.387 97.457 145.204 100.497 146.945C101.013 147.242 101.601 147.383 102.182 147.383C103.14 147.383 104.081 146.998 104.661 146.284C105.594 145.134 105.241 143.567 103.873 142.784Z" fill="#EBEBEB"/>
<path d="M161.772 100.571C160.156 98.6699 155.626 95.969 153.408 94.7085C152.354 90.2939 150.594 85.9825 148.15 81.8407C148.091 81.7193 148.023 81.6024 147.944 81.4911C146.465 79.0293 144.746 76.6289 142.787 74.3038C136.183 66.4654 129.255 62.2535 128.963 62.0784C127.617 61.2693 125.745 61.5289 124.781 62.66C123.817 63.7908 124.127 65.3636 125.473 66.1727C125.633 66.2687 135.554 72.3636 142.346 83.3919C141.883 86.546 136.664 91.583 132.867 94.3212C131.61 95.2255 131.464 96.8141 132.54 97.8698C133.132 98.4515 133.973 98.7508 134.818 98.7508C135.508 98.7508 136.2 98.5519 136.766 98.1458C136.883 98.0614 139.672 96.0479 142.461 93.2773C143.699 92.0481 144.742 90.8619 145.593 89.7203C147.827 95.116 149.09 101.362 148.405 108.378C148.269 109.764 149.497 110.98 151.147 111.093C151.23 111.099 151.313 111.102 151.395 111.102C152.939 111.102 154.251 110.106 154.379 108.79C154.615 106.382 154.643 103.984 154.473 101.604C155.625 102.381 156.53 103.068 156.895 103.497C157.48 104.185 158.401 104.552 159.336 104.552C159.939 104.552 160.548 104.399 161.075 104.083C162.422 103.275 162.734 101.702 161.772 100.571Z" fill="#EBEBEB"/>
<path d="M71.2852 40.344C70.7826 39.5231 69.7858 38.999 68.6868 38.9788C56.3681 38.7468 45.2655 39.0137 43.1642 39.0699C34.9117 39.2897 28.4099 45.1086 28.6712 52.0412C28.7979 55.4004 30.4721 58.5164 33.3858 60.8157C36.1819 63.0221 39.7995 64.2234 43.6195 64.2234C43.7835 64.2234 43.948 64.221 44.1125 64.2168C47.9424 64.1152 53.1234 64.0545 57.9721 64.0545C59.3158 64.0545 60.4949 63.3033 60.8584 62.2165C62.2336 58.0967 63.9082 54.2414 65.8371 50.7576C67.41 47.9158 69.1798 45.2764 71.0966 42.9137C71.7155 42.151 71.7882 41.165 71.2852 40.344Z" fill="#D5D5D5"/>
<path d="M71.0971 42.9135C71.7155 42.1508 71.7886 41.1645 71.2856 40.3438C70.7831 39.5229 69.7862 38.9988 68.6872 38.9786C64.057 38.8914 59.5991 38.8746 55.726 38.8907C51.3408 43.9619 46.1357 55.3852 45.3382 64.1869C49.0078 64.1035 53.6223 64.0547 57.9726 64.0547C59.3162 64.0547 60.4954 63.3035 60.8588 62.2167C62.234 58.0969 63.9087 54.2415 65.8376 50.7578C67.4101 47.9157 69.1798 45.2766 71.0971 42.9135Z" fill="#C0C0C0"/>
<path d="M141.427 37.5559C138.956 35.0344 136.192 32.7903 133.189 30.8668L136.753 20.9253C137.566 18.6561 137.279 16.2563 135.944 14.1685C134.609 12.0804 132.386 10.5543 129.685 9.87113C126.983 9.18694 124.126 9.42872 121.64 10.5501C119.155 11.6714 117.338 13.5388 116.525 15.8083L113.771 23.4907C113.673 23.474 113.575 23.4573 113.477 23.4409V16.6338C113.477 11.7412 108.739 7.76099 102.915 7.76099C97.0906 7.76099 92.3519 11.7412 92.3519 16.6338V23.7147C92.2855 23.729 92.2194 23.744 92.1534 23.7587L89.3037 15.8087C87.624 11.1244 81.7203 8.46123 76.1439 9.87113C73.4425 10.5546 71.2191 12.0807 69.8838 14.1685C68.5489 16.2567 68.2615 18.6564 69.0751 20.9253L73.3428 32.8297C68.2793 36.9485 63.9307 42.2573 60.4011 48.6342C54.3163 59.6269 52.5228 70.5928 52.4493 71.0551C51.3577 77.9375 57.129 84.2822 65.3138 85.1981C65.9746 85.2724 66.6466 85.3097 67.3112 85.3097C74.7757 85.3097 81.1484 80.6205 82.1319 74.4192C82.1406 74.3665 83.0498 69.0782 85.6678 63.0887C85.6719 63.08 85.6757 63.0709 85.6798 63.0618C85.8148 62.7534 85.9556 62.4429 86.0997 62.1317L86.1832 61.9513C86.3319 61.6341 86.4839 61.3152 86.6339 61.012C86.6384 61.0033 86.6438 60.9925 86.6492 60.9813C86.7996 60.6785 86.9557 60.375 87.1157 60.0707L87.2369 59.8411C87.4018 59.5313 87.5696 59.2215 87.7445 58.9127C94.064 47.7399 100.725 47.7399 102.914 47.7399C106.723 47.7399 109.909 48.3324 112.656 49.5511C113.595 49.9673 114.724 49.9355 115.627 49.4684C122.177 46.0809 130.304 43.4373 139.783 41.6101C140.795 41.4151 141.615 40.7937 141.95 39.9678C142.285 39.1424 142.087 38.23 141.427 37.5559Z" fill="#E2E2E2"/>
<path d="M123.499 43.2982C118.247 39.6912 111.312 37.1492 102.185 37.1492C70.705 37.1492 65.7109 82.7032 65.7109 82.7032C65.7109 82.7032 65.6519 83.7617 65.5859 85.2215C66.1595 85.277 66.738 85.3105 67.312 85.3105C74.7766 85.3105 81.1493 80.6213 82.1328 74.4196C82.1415 74.3669 83.0507 69.0787 85.6686 63.0891C85.6728 63.0804 85.6765 63.0713 85.6807 63.0622C85.8157 62.7538 85.9565 62.4433 86.1006 62.1321L86.1841 61.9517C86.3328 61.6345 86.4848 61.3157 86.6347 61.0125C86.6393 61.0037 86.6447 60.9929 86.6501 60.9818C86.8005 60.6789 86.9566 60.3754 87.1165 60.0711L87.2382 59.8416C87.4031 59.5317 87.5709 59.2219 87.7458 58.9131C94.0653 47.7403 100.727 47.7403 102.915 47.7403C106.724 47.7403 109.911 48.3328 112.658 49.5515C113.596 49.9677 114.726 49.936 115.629 49.4688C118.715 47.8729 122.155 46.4442 125.919 45.1857C125.208 44.5685 124.405 43.938 123.499 43.2982Z" fill="#B3B3B3"/>
<path d="M169.64 46.2257C168.993 39.3122 161.772 34.1276 153.537 34.6698C150.98 34.8387 128.722 36.543 111.822 45.5272C109.794 44.521 107.629 43.6414 105.366 42.9031C105.062 42.8037 104.74 42.7472 104.414 42.7349C103.852 42.7137 103.375 42.7042 102.914 42.7042C94.4096 42.7042 87.6765 47.2992 82.3297 56.7516C81.5215 58.1807 80.7552 59.72 80.052 61.3267C79.7284 62.066 79.8352 62.8901 80.3411 63.5534C80.847 64.2167 81.693 64.643 82.6284 64.7055C86.6095 64.971 89.7694 65.3132 92.0202 65.7225C94.3772 66.1513 97.4126 66.9855 100.004 69.649L100.01 69.6549C100.079 69.73 100.148 69.8046 100.219 69.8786C101.456 71.2114 102.494 72.8854 103.305 74.8546C103.896 76.2896 104.372 78.1266 104.719 80.3145C105.676 86.3459 111.586 90.9688 118.784 91.3073C119.068 91.3205 119.351 91.3275 119.634 91.3275C123.814 91.3272 127.791 89.8764 130.655 87.2834C133.69 84.5355 135.098 80.8351 134.518 77.1301C133.989 73.7514 133.121 70.4951 131.94 67.4527C131.657 66.7235 131.349 65.9946 131.019 65.271C139.046 61.9666 150.232 60.1436 155.904 59.7511C164.124 59.1998 170.286 53.1321 169.64 46.2257Z" fill="#D5D5D5"/>
<path d="M166.636 46.2617C166.634 46.2606 166.633 46.2599 166.632 46.2589C144.946 47.9873 129.7 53.1695 121.566 56.6554C117.627 58.3441 115.653 62.138 116.84 65.717C118.71 71.358 121.838 83.3465 123.468 90.911C126.192 90.3081 128.686 89.0656 130.655 87.2838C133.69 84.5359 135.098 80.8355 134.518 77.1305C133.989 73.7518 133.121 70.4955 131.939 67.4531C131.656 66.7239 131.349 65.9951 131.019 65.2714C139.045 61.967 150.231 60.144 155.903 59.7515C164.124 59.1999 170.286 53.1325 169.64 46.2261V46.2257C169.638 46.2024 169.634 46.1793 169.631 46.1563C168.7 46.1448 167.705 46.1769 166.636 46.2617Z" fill="#C0C0C0"/>
<path d="M93.2951 65.9895C96.6191 59.0325 106.356 47.8733 111.822 45.5273C109.794 44.5211 107.63 43.6415 105.366 42.9032C105.062 42.8038 104.74 42.7473 104.414 42.735C103.852 42.7138 103.375 42.7043 102.915 42.7043C94.4099 42.7043 87.6768 47.2993 82.33 56.7517C81.5218 58.1808 80.7554 59.7202 80.0523 61.3268C79.7287 62.0661 79.8355 62.8902 80.3413 63.5535C80.8472 64.2168 81.6933 64.6431 82.6286 64.7056C86.6097 64.9711 89.7697 65.3134 92.0204 65.7226C92.4258 65.7969 92.854 65.8841 93.2951 65.9895Z" fill="#C0C0C0"/>
</g>
<mask id="mask0_1018_2082" style="mask-type:alpha" maskUnits="userSpaceOnUse" x="0" y="0" width="213" height="208">
<rect width="212.657" height="208" transform="matrix(1 0 0 -1 0 208)" fill="white"/>
</mask>
<g mask="url(#mask0_1018_2082)">
<g clip-path="url(#clip1_1018_2082)">
<path d="M173.333 115.284C171.558 106.616 169.882 98.4293 170.454 92.3008C172.328 72.2092 161.872 61.3102 152.769 55.7048C152.124 55.3078 151.316 55.1431 150.528 55.2488C145.909 55.8643 134.244 57.7497 125.702 61.9526C124.388 62.5991 123.86 63.9706 124.474 65.1408C125.139 66.4073 125.733 67.7111 126.24 69.015C127.307 71.7633 128.092 74.7149 128.573 77.787C128.92 80.0004 128.077 82.2135 126.26 83.8582C124.42 85.5235 121.817 86.4034 119.106 86.2785C114.789 86.0754 111.237 83.2874 110.66 79.6487C110.26 77.1276 109.691 74.9606 108.969 73.2074C107.937 70.7023 106.575 68.5325 104.922 66.7569C104.908 66.7419 104.894 66.7262 104.879 66.7112C104.836 66.6672 104.795 66.6219 104.754 66.5772L104.722 66.5427C104.707 66.5266 104.692 66.5106 104.677 66.4945C100.862 62.5534 96.3497 61.357 93.2878 60.7998C90.7762 60.3427 87.3492 59.9677 83.1018 59.6844C81.7632 59.5964 80.5155 60.266 80.0516 61.3256C77.1782 67.8912 76.2042 73.6651 76.1922 73.7363C75.6011 77.4629 71.7833 80.2733 67.3108 80.2733C66.9109 80.2733 66.5051 80.2509 66.1055 80.2059C61.1965 79.6568 57.7363 75.8496 58.3909 71.7207C58.4175 71.5553 59.0571 67.6072 60.8609 62.2059C60.8688 62.1825 60.8763 62.1584 60.883 62.1364C60.9428 61.9355 60.9685 61.7342 60.9698 61.5356C61.1018 61.3552 61.2165 61.1634 61.2925 60.9523V60.9519C61.2937 60.9488 61.2946 60.9463 61.2958 60.9432L61.3407 60.8172C61.4254 60.5779 61.4657 60.3358 61.4661 60.0982C61.4665 59.0131 60.625 58.0111 59.3238 57.6852C57.885 57.3251 56.3827 57.9165 55.7618 59.0225C55.6334 59.0229 55.503 59.0232 55.3759 59.0239C54.6125 59.027 53.8798 59.2748 53.3262 59.7161C42.3345 68.4871 35.7629 83.0857 36.1762 97.8135C36.1807 97.9642 36.1882 98.1153 36.1965 98.267C36.2048 98.4219 36.2144 98.5769 36.2139 98.7325C36.1982 108.618 40.0829 119.746 47.4482 130.915C54.502 141.61 64.2385 151.643 75.6053 159.928C85.0644 166.822 95.4164 172.244 105.543 175.609C114.018 178.426 122.281 179.841 130.199 179.841C132.79 179.841 135.343 179.69 137.856 179.386C152.627 177.602 162.94 173.117 169.383 165.675C180.923 152.349 176.891 132.657 173.333 115.284Z" fill="#EF3A47"/>
<path d="M42.9932 71.7218C42.3387 75.8507 45.7993 79.6579 50.7079 80.207C51.1074 80.252 51.5132 80.2744 51.9132 80.2744C55.1371 80.2744 58.0134 78.81 59.5933 76.5987C58.5832 75.1825 58.1118 73.482 58.3913 71.7214C58.4175 71.5561 59.0575 67.6079 60.8614 62.2066C60.8693 62.1832 60.8768 62.1592 60.8834 62.1372C60.9432 61.9362 60.969 61.7349 60.9702 61.5364C61.1023 61.356 61.2169 61.1641 61.2929 60.953V60.9527C61.2942 60.9495 61.295 60.9471 61.2962 60.944L61.3411 60.818C61.4258 60.5787 61.4661 60.3365 61.4665 60.0989C61.467 59.0138 60.6255 58.0118 59.3242 57.6859C57.8854 57.3259 56.3831 57.9173 55.7622 59.0233C55.6339 59.0236 55.5034 59.024 55.3763 59.0247C54.6129 59.0278 53.8803 59.2755 53.3266 59.7169C49.2238 62.9906 45.7383 67.0766 43.0003 71.6778C42.997 71.6981 42.9941 71.7148 42.9932 71.7218Z" fill="#CE3043"/>
<path d="M89.2785 66.4956C89.2939 66.5113 89.3092 66.5273 89.3242 66.5437L89.3558 66.5783C89.3969 66.6229 89.438 66.6683 89.4808 66.7122C89.4957 66.7273 89.5098 66.7426 89.5244 66.758C91.1775 68.5332 92.5385 70.7033 93.5707 73.2084C94.293 74.9616 94.862 77.1286 95.262 79.6498C95.8393 83.2884 99.3913 86.0765 103.708 86.2795C106.419 86.4044 109.022 85.5245 110.862 83.8592C111.272 83.4876 111.63 83.0854 111.939 82.6622C111.284 81.7665 110.834 80.7481 110.66 79.6498C110.26 77.1286 109.691 74.9616 108.969 73.2084C107.937 70.7033 106.575 68.5335 104.922 66.758C104.908 66.743 104.894 66.7273 104.879 66.7122C104.836 66.6683 104.795 66.6229 104.754 66.5783L104.722 66.5437C104.707 66.5277 104.692 66.5116 104.677 66.4956C100.862 62.5544 96.3498 61.358 93.2878 60.8009C90.7762 60.3438 87.3492 59.9687 83.1019 59.6854C81.7836 59.5989 80.5571 60.2492 80.0769 61.2806C82.8867 62.0126 86.2942 63.4127 89.2785 66.4956Z" fill="#CE3043"/>
<path d="M173.333 115.284C171.558 106.616 169.882 98.4292 170.454 92.3008C172.328 72.2091 161.872 61.3102 152.769 55.7048C152.124 55.3078 151.317 55.1431 150.528 55.2488C148.235 55.5545 144.205 56.1734 139.683 57.2334C148.141 63.2069 156.773 73.8947 155.056 92.3008C154.484 98.4292 156.16 106.616 157.935 115.284C161.493 132.657 165.525 152.349 153.986 165.676C147.543 173.117 137.23 177.602 122.459 179.386C122.438 179.389 122.417 179.391 122.396 179.393C125.03 179.69 127.634 179.841 130.201 179.841C132.791 179.841 135.345 179.69 137.857 179.386C152.629 177.602 162.942 173.117 169.385 165.676C180.923 152.349 176.891 132.657 173.333 115.284Z" fill="#CE3043"/>
<path d="M103.873 142.784C95.203 137.818 88.9118 132.203 84.3562 126.816H91.9953C93.6504 126.816 94.9924 125.689 94.9924 124.298C94.9924 122.908 93.6504 121.781 91.9953 121.781H80.5222C78.5626 118.91 77.0752 116.196 75.9571 113.793C71.8552 104.979 71.618 98.2747 71.6164 98.208C71.5798 96.8198 70.2133 95.72 68.5586 95.7466C66.9038 95.7752 65.5893 96.9248 65.6233 98.3155C65.63 98.5922 65.821 104.676 69.2692 113.095C67.104 118.325 65.7072 127.701 65.6454 128.122C65.4423 129.502 66.6098 130.759 68.2521 130.929C68.3771 130.942 68.5009 130.949 68.6234 130.949C70.1149 130.949 71.407 130.014 71.5943 128.74C71.8257 127.167 72.3764 123.975 73.1149 120.821C73.9847 122.291 74.9707 123.819 76.0855 125.382C76.1702 125.53 76.2711 125.671 76.3874 125.802C79.0037 129.41 82.309 133.198 86.4857 136.925C86.227 139.366 85.7963 144.83 86.6776 148.114C86.9916 149.284 88.2281 150.079 89.5992 150.079C89.8172 150.079 90.039 150.059 90.2608 150.017C91.8757 149.711 92.8895 148.363 92.5257 147.007C92.1635 145.658 92.1053 143.559 92.171 141.528C94.6934 143.387 97.4567 145.204 100.496 146.945C101.012 147.242 101.601 147.383 102.182 147.383C103.139 147.383 104.081 146.998 104.661 146.284C105.593 145.134 105.241 143.567 103.873 142.784Z" fill="#BA1D1D"/>
<path d="M161.772 100.571C160.156 98.6699 155.626 95.969 153.408 94.7085C152.354 90.2938 150.593 85.9825 148.15 81.8407C148.091 81.7193 148.023 81.6024 147.944 81.4911C146.465 79.0293 144.745 76.6289 142.787 74.3038C136.183 66.4654 129.254 62.2535 128.963 62.0784C127.617 61.2693 125.745 61.5289 124.781 62.66C123.817 63.7908 124.127 65.3636 125.473 66.1727C125.632 66.2687 135.554 72.3636 142.346 83.3919C141.883 86.546 136.664 91.583 132.866 94.3212C131.61 95.2255 131.464 96.8141 132.539 97.8698C133.132 98.4515 133.972 98.7508 134.818 98.7508C135.507 98.7508 136.2 98.5519 136.765 98.1458C136.883 98.0614 139.672 96.0479 142.461 93.2773C143.698 92.0481 144.741 90.8619 145.592 89.7203C147.826 95.116 149.09 101.362 148.404 108.378C148.269 109.764 149.496 110.98 151.146 111.093C151.23 111.099 151.312 111.102 151.395 111.102C152.939 111.102 154.25 110.106 154.379 108.79C154.614 106.382 154.642 103.984 154.473 101.604C155.625 102.381 156.53 103.068 156.894 103.497C157.479 104.185 158.401 104.552 159.336 104.552C159.939 104.552 160.547 104.399 161.075 104.083C162.422 103.275 162.734 101.702 161.772 100.571Z" fill="#BA1D1D"/>
<path d="M71.2848 40.344C70.7822 39.5231 69.7854 38.999 68.6864 38.9788C56.3677 38.7468 45.2651 39.0137 43.1639 39.0699C34.9114 39.2897 28.4096 45.1086 28.6708 52.0412C28.7975 55.4004 30.4717 58.5164 33.3854 60.8157C36.1815 63.0221 39.7992 64.2234 43.6191 64.2234C43.7831 64.2234 43.9476 64.221 44.1121 64.2168C47.942 64.1152 53.123 64.0545 57.9718 64.0545C59.3154 64.0545 60.4946 63.3033 60.858 62.2165C62.2332 58.0967 63.9079 54.2414 65.8367 50.7576C67.4096 47.9158 69.1794 45.2764 71.0962 42.9137C71.7151 42.151 71.7878 41.165 71.2848 40.344Z" fill="#F77474"/>
<path d="M71.0967 42.9135C71.7152 42.1508 71.7883 41.1645 71.2853 40.3438C70.7827 39.5229 69.7859 38.9988 68.6869 38.9786C64.0566 38.8914 59.5987 38.8746 55.7256 38.8907C51.3404 43.9619 46.1353 55.3852 45.3378 64.1869C49.0074 64.1035 53.6219 64.0547 57.9722 64.0547C59.3159 64.0547 60.495 63.3035 60.8584 62.2167C62.2337 58.0969 63.9083 54.2415 65.8372 50.7578C67.4097 47.9157 69.1795 45.2766 71.0967 42.9135Z" fill="#E55555"/>
<path d="M141.427 37.5559C138.956 35.0344 136.191 32.7903 133.188 30.8668L136.752 20.9253C137.566 18.6561 137.279 16.2563 135.944 14.1685C134.608 12.0804 132.386 10.5543 129.684 9.87113C126.983 9.18694 124.126 9.42872 121.64 10.5501C119.155 11.6714 117.338 13.5388 116.525 15.8083L113.771 23.4907C113.672 23.474 113.575 23.4573 113.476 23.4409V16.6338C113.477 11.7412 108.739 7.76099 102.914 7.76099C97.0902 7.76099 92.3515 11.7412 92.3515 16.6338V23.7147C92.2851 23.729 92.219 23.744 92.153 23.7587L89.3033 15.8087C87.6237 11.1244 81.72 8.46123 76.1435 9.87113C73.4421 10.5546 71.2188 12.0807 69.8834 14.1685C68.5485 16.2567 68.2611 18.6564 69.0748 20.9253L73.3424 32.8297C68.279 36.9485 63.9303 42.2573 60.4007 48.6342C54.3159 59.6269 52.5224 70.5928 52.4489 71.0551C51.3574 77.9375 57.1286 84.2822 65.3134 85.1981C65.9742 85.2724 66.6462 85.3097 67.3108 85.3097C74.7754 85.3097 81.148 80.6205 82.1316 74.4192C82.1403 74.3665 83.0495 69.0782 85.6674 63.0887C85.6715 63.08 85.6753 63.0709 85.6794 63.0618C85.8144 62.7534 85.9552 62.4429 86.0994 62.1317L86.1828 61.9513C86.3315 61.6341 86.4835 61.3152 86.6335 61.012C86.6381 61.0033 86.6435 60.9925 86.6489 60.9813C86.7992 60.6785 86.9554 60.375 87.1153 60.0707L87.2366 59.8411C87.4015 59.5313 87.5693 59.2215 87.7441 58.9127C94.0636 47.7399 100.725 47.7399 102.914 47.7399C106.722 47.7399 109.909 48.3324 112.656 49.5511C113.594 49.9673 114.724 49.9355 115.627 49.4684C122.176 46.0809 130.304 43.4373 139.783 41.6101C140.795 41.4151 141.615 40.7937 141.95 39.9678C142.285 39.1424 142.087 38.23 141.427 37.5559Z" fill="#9B3E2C"/>
<path d="M123.499 43.2982C118.247 39.6912 111.312 37.1492 102.184 37.1492C70.7046 37.1492 65.7105 82.7032 65.7105 82.7032C65.7105 82.7032 65.6516 83.7617 65.5855 85.2215C66.1591 85.277 66.7377 85.3105 67.3117 85.3105C74.7763 85.3105 81.1489 80.6213 82.1324 74.4196C82.1412 74.3669 83.0504 69.0787 85.6683 63.0891C85.6724 63.0804 85.6762 63.0713 85.6803 63.0622C85.8153 62.7538 85.9561 62.4433 86.1002 62.1321L86.1837 61.9517C86.3324 61.6345 86.4844 61.3157 86.6344 61.0125C86.6389 61.0037 86.6443 60.9929 86.6497 60.9818C86.8001 60.6789 86.9563 60.3754 87.1162 60.0711L87.2379 59.8416C87.4028 59.5317 87.5706 59.2219 87.7454 58.9131C94.0649 47.7403 100.726 47.7403 102.915 47.7403C106.724 47.7403 109.91 48.3328 112.657 49.5515C113.596 49.9677 114.725 49.936 115.628 49.4688C118.714 47.8729 122.155 46.4442 125.918 45.1857C125.208 44.5685 124.405 43.938 123.499 43.2982Z" fill="#7A232E"/>
<path d="M169.64 46.2257C168.993 39.3122 161.772 34.1276 153.537 34.6698C150.979 34.8387 128.721 36.543 111.822 45.5272C109.793 44.521 107.629 43.6414 105.365 42.9031C105.061 42.8037 104.739 42.7472 104.413 42.7349C103.851 42.7137 103.375 42.7042 102.914 42.7042C94.4093 42.7042 87.6761 47.2992 82.3294 56.7516C81.5211 58.1807 80.7548 59.72 80.0516 61.3267C79.7281 62.066 79.8348 62.8901 80.3407 63.5534C80.8466 64.2167 81.6927 64.643 82.628 64.7055C86.6091 64.971 89.769 65.3132 92.0198 65.7225C94.3769 66.1513 97.4122 66.9855 100.004 69.649L100.01 69.6549C100.078 69.73 100.148 69.8046 100.219 69.8786C101.455 71.2114 102.493 72.8854 103.304 74.8546C103.895 76.2896 104.371 78.1266 104.719 80.3145C105.676 86.3459 111.586 90.9688 118.784 91.3073C119.068 91.3205 119.351 91.3275 119.634 91.3275C123.813 91.3272 127.791 89.8764 130.655 87.2834C133.69 84.5355 135.098 80.8351 134.518 77.1301C133.989 73.7514 133.121 70.4951 131.939 67.4527C131.657 66.7235 131.349 65.9946 131.019 65.271C139.045 61.9666 150.232 60.1436 155.904 59.7511C164.123 59.1998 170.286 53.1321 169.64 46.2257Z" fill="#F77474"/>
<path d="M166.635 46.2617C166.633 46.2606 166.633 46.2599 166.631 46.2589C144.946 47.9873 129.699 53.1695 121.566 56.6554C117.627 58.3441 115.652 62.138 116.839 65.717C118.71 71.358 121.837 83.3465 123.467 90.911C126.192 90.3081 128.686 89.0656 130.654 87.2838C133.689 84.5359 135.097 80.8355 134.517 77.1305C133.988 73.7518 133.121 70.4955 131.939 67.4531C131.656 66.7239 131.348 65.9951 131.018 65.2714C139.045 61.967 150.231 60.144 155.903 59.7515C164.124 59.1999 170.286 53.1325 169.64 46.2261V46.2257C169.638 46.2024 169.633 46.1793 169.631 46.1563C168.7 46.1448 167.705 46.1769 166.635 46.2617Z" fill="#E55555"/>
<path d="M93.2947 65.9895C96.6188 59.0325 106.356 47.8733 111.822 45.5273C109.793 44.5211 107.629 43.6415 105.366 42.9032C105.061 42.8038 104.74 42.7473 104.414 42.735C103.852 42.7138 103.375 42.7043 102.914 42.7043C94.4095 42.7043 87.6764 47.2993 82.3296 56.7517C81.5214 58.1808 80.7551 59.7202 80.0519 61.3268C79.7283 62.0661 79.8351 62.8902 80.341 63.5535C80.8469 64.2168 81.6929 64.6431 82.6283 64.7056C86.6094 64.9711 89.7693 65.3134 92.0201 65.7226C92.4254 65.7969 92.8537 65.8841 93.2947 65.9895Z" fill="#E55555"/>
</g>
</g>
<defs>
<clipPath id="clip0_1018_2082">
<rect width="204.852" height="172.08" fill="white" transform="translate(0.41571 7.76099)"/>
</clipPath>
<clipPath id="clip1_1018_2082">
<rect width="204.852" height="172.08" fill="white" transform="translate(0.415344 7.76099)"/>
</clipPath>
</defs>
</svg>
