<svg xmlns="http://www.w3.org/2000/svg" viewBox="0 0 322 55"><defs><style>.cls-1{fill:#1cb393;}.cls-2{fill:#fff;}</style></defs><title>maybe-later</title><g id="Layer_2" data-name="Layer 2"><g id="Layer_1-2" data-name="Layer 1"><rect class="cls-1" width="322" height="55" rx="20"/><path class="cls-2" d="M102.26,16.32h1.51l6.51,11.35h.09l6.48-11.35h1.51V33.5h-1.51V22.05l.1-2.88h-.1l-6.09,10.68h-.89l-6.1-10.68h-.09l.09,2.88V33.5h-1.51Z"/><path class="cls-2" d="M129.28,31.41h-.09a5.35,5.35,0,0,1-1.67,1.75,4.33,4.33,0,0,1-2.48.72,5.12,5.12,0,0,1-1.78-.3,4.7,4.7,0,0,1-1.42-.81,3.65,3.65,0,0,1-.93-1.24,3.56,3.56,0,0,1-.34-1.56,3.47,3.47,0,0,1,.4-1.7A3.6,3.6,0,0,1,122.05,27a4.73,4.73,0,0,1,1.58-.76,7.4,7.4,0,0,1,1.91-.25,7.59,7.59,0,0,1,2.16.28,6.82,6.82,0,0,1,1.58.63V26.2a3.59,3.59,0,0,0-.28-1.44,3.51,3.51,0,0,0-.77-1.1,3.31,3.31,0,0,0-1.14-.7,4,4,0,0,0-1.38-.24,3.9,3.9,0,0,0-1.92.47,3.77,3.77,0,0,0-1.39,1.36l-1.35-.84A5.1,5.1,0,0,1,123,22a5.73,5.73,0,0,1,2.71-.63,6.07,6.07,0,0,1,2.11.34,4.69,4.69,0,0,1,1.61,1,4.27,4.27,0,0,1,1,1.51,5.11,5.11,0,0,1,.36,2V33.5h-1.49Zm0-3.14a7.23,7.23,0,0,0-1.57-.71,6.37,6.37,0,0,0-1.93-.28,5.08,5.08,0,0,0-1.45.2,3.4,3.4,0,0,0-1.15.54,2.4,2.4,0,0,0-.77.85,2.36,2.36,0,0,0,0,2.17,2.38,2.38,0,0,0,.69.79,3.33,3.33,0,0,0,1,.51,3.5,3.5,0,0,0,1.12.18,3.74,3.74,0,0,0,1.53-.34,4.19,4.19,0,0,0,1.32-.92,4.9,4.9,0,0,0,.93-1.36A3.94,3.94,0,0,0,129.28,28.27Z"/><path class="cls-2" d="M134.11,38.68l2.71-6-4.94-10.9h1.7l4,9.07h.05l3.82-9.07h1.68l-7.42,16.94Z"/><path class="cls-2" d="M144.43,16.32H146v5.83l-.09,1.63H146a6,6,0,0,1,.7-.92,4.1,4.1,0,0,1,1-.78,4.71,4.71,0,0,1,1.25-.53,5.62,5.62,0,0,1,1.53-.19,5,5,0,0,1,2.14.46,5.63,5.63,0,0,1,1.76,1.3,6,6,0,0,1,1.2,2,7.28,7.28,0,0,1,0,5,6,6,0,0,1-1.2,2,5.63,5.63,0,0,1-1.76,1.3,5,5,0,0,1-2.14.46,5.25,5.25,0,0,1-1.53-.2,5.48,5.48,0,0,1-1.25-.54,4.1,4.1,0,0,1-1-.78,6.58,6.58,0,0,1-.7-.92h-.09V33.5h-1.44Zm5.71,16.17a4.12,4.12,0,0,0,1.62-.33,4.24,4.24,0,0,0,1.37-1,4.63,4.63,0,0,0,.93-1.54,5.53,5.53,0,0,0,.35-2,5.44,5.44,0,0,0-.35-2,4.68,4.68,0,0,0-.93-1.53,4,4,0,0,0-1.37-1,4.12,4.12,0,0,0-1.62-.33,4.29,4.29,0,0,0-1.62.32,3.93,3.93,0,0,0-1.37.95,4.63,4.63,0,0,0-.93,1.54,6.21,6.21,0,0,0,0,4.11,4.84,4.84,0,0,0,.93,1.54,4,4,0,0,0,1.37,1A4.29,4.29,0,0,0,150.14,32.49Z"/><path class="cls-2" d="M168.38,30.72a5.91,5.91,0,0,1-.79,1.22A5.28,5.28,0,0,1,165,33.63a6,6,0,0,1-1.8.25,5.87,5.87,0,0,1-2.35-.46A5.6,5.6,0,0,1,159,32.11a5.86,5.86,0,0,1-1.21-2,7,7,0,0,1-.44-2.51,7.13,7.13,0,0,1,.4-2.41,5.75,5.75,0,0,1,1.14-2,5.53,5.53,0,0,1,1.8-1.36,5.38,5.38,0,0,1,2.37-.5,5.65,5.65,0,0,1,2.3.44,5,5,0,0,1,1.74,1.25A5.55,5.55,0,0,1,168.22,25a7.33,7.33,0,0,1,.4,2.5v.14a.3.3,0,0,0,0,.12v.14h-9.68a5,5,0,0,0,.44,2.09,4.38,4.38,0,0,0,1,1.43,4,4,0,0,0,1.39.83,4.72,4.72,0,0,0,1.49.26,3.73,3.73,0,0,0,2.35-.68,5.59,5.59,0,0,0,1.44-1.74ZM167,26.59a4.65,4.65,0,0,0-.24-1.25,4,4,0,0,0-.67-1.25,3.68,3.68,0,0,0-1.21-1,4.19,4.19,0,0,0-1.86-.38,3.85,3.85,0,0,0-1.39.25,3.88,3.88,0,0,0-1.22.73,4.13,4.13,0,0,0-.91,1.2,4.89,4.89,0,0,0-.49,1.66Z"/><path class="cls-2" d="M176.4,33.5V16.32h1.53V33.5Z"/><path class="cls-2" d="M188.66,31.41h-.1a5.32,5.32,0,0,1-1.66,1.75,4.36,4.36,0,0,1-2.49.72,5.06,5.06,0,0,1-1.77-.3,4.58,4.58,0,0,1-1.42-.81,3.81,3.81,0,0,1-.94-1.24A3.7,3.7,0,0,1,180,30a3.58,3.58,0,0,1,.39-1.7A3.82,3.82,0,0,1,181.42,27a4.88,4.88,0,0,1,1.59-.76,7.35,7.35,0,0,1,1.91-.25,7.47,7.47,0,0,1,2.15.28,7.11,7.11,0,0,1,1.59.63V26.2a3.6,3.6,0,0,0-.29-1.44,3.35,3.35,0,0,0-.77-1.1,3.31,3.31,0,0,0-1.14-.7,4,4,0,0,0-1.38-.24,3.9,3.9,0,0,0-1.92.47,3.85,3.85,0,0,0-1.39,1.36l-1.34-.84A5,5,0,0,1,182.32,22a5.76,5.76,0,0,1,2.71-.63,6.12,6.12,0,0,1,2.12.34,4.79,4.79,0,0,1,1.61,1,4.41,4.41,0,0,1,1,1.51,5.11,5.11,0,0,1,.36,2V33.5h-1.49Zm0-3.14a7.23,7.23,0,0,0-1.57-.71,6.37,6.37,0,0,0-1.93-.28,5.15,5.15,0,0,0-1.46.2,3.49,3.49,0,0,0-1.15.54,2.5,2.5,0,0,0-.77.85,2.33,2.33,0,0,0-.27,1.13,2.13,2.13,0,0,0,.25,1,2.46,2.46,0,0,0,.68.79,3.38,3.38,0,0,0,1,.51,3.49,3.49,0,0,0,1.11.18,3.79,3.79,0,0,0,1.54-.34,4.42,4.42,0,0,0,1.32-.92,4.87,4.87,0,0,0,.92-1.36A4,4,0,0,0,188.66,28.27Z"/><path class="cls-2" d="M193.89,23.13h-2.13V21.74h2.13v-3.6h1.54v3.6h2.93v1.39h-2.93v7.23a2.19,2.19,0,0,0,.5,1.57,1.5,1.5,0,0,0,1.15.54,2.77,2.77,0,0,0,.62-.06,3.07,3.07,0,0,0,.56-.21l.48,1.32a3.69,3.69,0,0,1-.83.28,4.83,4.83,0,0,1-1,.08,3,3,0,0,1-2.12-.8,3,3,0,0,1-.67-1,3.89,3.89,0,0,1-.24-1.45Z"/><path class="cls-2" d="M210.86,30.72a5.91,5.91,0,0,1-.79,1.22,5.28,5.28,0,0,1-2.57,1.69,6,6,0,0,1-1.8.25,5.87,5.87,0,0,1-2.35-.46,5.6,5.6,0,0,1-1.86-1.31,5.86,5.86,0,0,1-1.21-2,7,7,0,0,1-.44-2.51,7.38,7.38,0,0,1,.4-2.41,5.75,5.75,0,0,1,1.14-2,5.64,5.64,0,0,1,1.8-1.36,5.4,5.4,0,0,1,2.38-.5,5.64,5.64,0,0,1,2.29.44,5,5,0,0,1,1.74,1.25A5.55,5.55,0,0,1,210.7,25a7.33,7.33,0,0,1,.4,2.5v.14a.3.3,0,0,0,0,.12v.14H201.4a5,5,0,0,0,.44,2.09,4.38,4.38,0,0,0,1,1.43,4,4,0,0,0,1.39.83,4.72,4.72,0,0,0,1.49.26,3.73,3.73,0,0,0,2.35-.68,5.59,5.59,0,0,0,1.44-1.74Zm-1.37-4.13a4.29,4.29,0,0,0-.24-1.25,4,4,0,0,0-.67-1.25,3.68,3.68,0,0,0-1.21-1,4.19,4.19,0,0,0-1.86-.38,3.85,3.85,0,0,0-1.39.25,3.88,3.88,0,0,0-1.22.73,4.13,4.13,0,0,0-.91,1.2,4.89,4.89,0,0,0-.49,1.66Z"/><path class="cls-2" d="M213.24,33.5V21.74h1.44V23.8h.09a2.83,2.83,0,0,1,.54-1,4.71,4.71,0,0,1,.84-.77,4.64,4.64,0,0,1,1-.51,2.75,2.75,0,0,1,1-.19,3.88,3.88,0,0,1,.91.08,2.33,2.33,0,0,1,.7.28l-.48,1.39a3,3,0,0,0-1.32-.24,2.54,2.54,0,0,0-1.2.3,3.32,3.32,0,0,0-1,.83,4.07,4.07,0,0,0-.69,1.27,4.59,4.59,0,0,0-.27,1.6V33.5Z"/></g></g></svg>