<svg xmlns="http://www.w3.org/2000/svg" viewBox="0 0 322 55"><defs><style>.cls-1{fill:#1cb393;}.cls-2{fill:#fff;}</style></defs><title>no-am-good</title><g id="Layer_2" data-name="Layer 2"><g id="Layer_1-2" data-name="Layer 1"><rect class="cls-1" width="322" height="55" rx="20"/><path class="cls-2" d="M55.51,16.32h2l9.34,14.49h.09l-.09-3.31V16.32h1.53V33.5H66.79L57.05,18.36H57l.1,3.31V33.5H55.51Z"/><path class="cls-2" d="M76.87,21.36a5.9,5.9,0,0,1,2.39.48,5.71,5.71,0,0,1,1.88,1.32,6.1,6.1,0,0,1,1.24,2,7.21,7.21,0,0,1,0,5,6.1,6.1,0,0,1-1.24,2,5.71,5.71,0,0,1-1.88,1.32,5.9,5.9,0,0,1-2.39.48,5.8,5.8,0,0,1-4.25-1.8,5.91,5.91,0,0,1-1.23-2,7.06,7.06,0,0,1,0-5,5.91,5.91,0,0,1,1.23-2,5.8,5.8,0,0,1,4.25-1.8Zm0,11.13a4,4,0,0,0,1.66-.35,4.49,4.49,0,0,0,1.4-1,4.67,4.67,0,0,0,1-1.54,5.45,5.45,0,0,0,0-4,4.67,4.67,0,0,0-1-1.54,4.49,4.49,0,0,0-1.4-1,4.11,4.11,0,0,0-3.32,0,4.49,4.49,0,0,0-1.4,1,4.65,4.65,0,0,0-1,1.54,5.74,5.74,0,0,0,0,4,4.65,4.65,0,0,0,1,1.54,4.49,4.49,0,0,0,1.4,1A4,4,0,0,0,76.87,32.49Z"/><path class="cls-2" d="M84.65,35.47l1.22-1.95a1.3,1.3,0,0,1-.58-.38A1.08,1.08,0,0,1,85,32.4a1.2,1.2,0,0,1,1.22-1.23,1.23,1.23,0,0,1,.89.35,1.16,1.16,0,0,1,.36.88,1.4,1.4,0,0,1-.14.61c-.1.18-.21.38-.34.59L85.44,36Z"/><path class="cls-2" d="M96.21,16.32h1.54V33.5H96.21Z"/><path class="cls-2" d="M100.82,19.94l1.11-1.66a1.3,1.3,0,0,1-.58-.38,1,1,0,0,1-.26-.74,1.18,1.18,0,0,1,.34-.88,1.22,1.22,0,0,1,.88-.35,1.25,1.25,0,0,1,.89.35,1.16,1.16,0,0,1,.36.88,1.32,1.32,0,0,1-.15.62,5,5,0,0,1-.33.58l-1.47,2.11Z"/><path class="cls-2" d="M105.5,21.74h1.44V24h.1a3.89,3.89,0,0,1,.65-1,4.87,4.87,0,0,1,.92-.83,4.42,4.42,0,0,1,1.13-.56,3.86,3.86,0,0,1,1.26-.2,3.69,3.69,0,0,1,2.4.76,3.83,3.83,0,0,1,1.27,1.95,5.21,5.21,0,0,1,1.66-1.93,4.8,4.8,0,0,1,4.4-.44,3.46,3.46,0,0,1,1.25,1,4.09,4.09,0,0,1,.72,1.48,7.45,7.45,0,0,1,.23,1.88V33.5h-1.54V26.3a4.44,4.44,0,0,0-.67-2.65,2.56,2.56,0,0,0-2.19-.9,2.9,2.9,0,0,0-1.45.37,3.92,3.92,0,0,0-1.13,1,4.63,4.63,0,0,0-.72,1.42,5.82,5.82,0,0,0-.25,1.67V33.5h-1.53V26.35a4.4,4.4,0,0,0-.69-2.7,2.52,2.52,0,0,0-2.15-.9,2.93,2.93,0,0,0-1.47.38,3.69,3.69,0,0,0-1.13,1,5.22,5.22,0,0,0-.72,1.48,5.77,5.77,0,0,0-.25,1.72V33.5H105.5Z"/><path class="cls-2" d="M136.32,39.07a6.17,6.17,0,0,1-2-.31,5.61,5.61,0,0,1-1.5-.8,4.46,4.46,0,0,1-1-1.09,5.62,5.62,0,0,1-.63-1.21l1.44-.58A3.57,3.57,0,0,0,134,37a4.1,4.1,0,0,0,2.36.7,4,4,0,0,0,3.19-1.24A5,5,0,0,0,140.59,33V31.48h-.12a5.24,5.24,0,0,1-1.65,1.67,4.66,4.66,0,0,1-2.67.73,5,5,0,0,1-2.13-.46,5.74,5.74,0,0,1-1.76-1.31,6.25,6.25,0,0,1-1.21-2,7.17,7.17,0,0,1,0-5,6.25,6.25,0,0,1,1.21-2A5.74,5.74,0,0,1,134,21.82a5,5,0,0,1,2.13-.46,4.73,4.73,0,0,1,2.67.72,5.19,5.19,0,0,1,1.65,1.65h.12v-2h1.49V33.12a6.9,6.9,0,0,1-.45,2.6,5.15,5.15,0,0,1-1.22,1.86,5,5,0,0,1-1.84,1.12A6.89,6.89,0,0,1,136.32,39.07Zm0-6.58a4.23,4.23,0,0,0,1.6-.32,3.93,3.93,0,0,0,1.37-1,4.85,4.85,0,0,0,.95-1.52,6.19,6.19,0,0,0,0-4.16,4.85,4.85,0,0,0-.95-1.52,3.93,3.93,0,0,0-1.37-.95,4.23,4.23,0,0,0-1.6-.32,3.92,3.92,0,0,0-1.57.33,4.34,4.34,0,0,0-1.34,1,4.9,4.9,0,0,0-.95,1.53,5.47,5.47,0,0,0-.36,2.05,5.53,5.53,0,0,0,.36,2,4.84,4.84,0,0,0,.95,1.54,4.34,4.34,0,0,0,1.34,1A3.92,3.92,0,0,0,136.36,32.49Z"/><path class="cls-2" d="M150,21.36a5.9,5.9,0,0,1,2.39.48,5.71,5.71,0,0,1,1.88,1.32,6.1,6.1,0,0,1,1.24,2,7.21,7.21,0,0,1,0,5,6.1,6.1,0,0,1-1.24,2,5.71,5.71,0,0,1-1.88,1.32,5.9,5.9,0,0,1-2.39.48,5.8,5.8,0,0,1-4.25-1.8,5.91,5.91,0,0,1-1.23-2,7.06,7.06,0,0,1,0-5,5.91,5.91,0,0,1,1.23-2,5.8,5.8,0,0,1,4.25-1.8Zm0,11.13a4,4,0,0,0,1.66-.35,4.49,4.49,0,0,0,1.4-1,4.67,4.67,0,0,0,1-1.54,5.45,5.45,0,0,0,0-4,4.67,4.67,0,0,0-1-1.54,4.49,4.49,0,0,0-1.4-1,4.11,4.11,0,0,0-3.32,0,4.49,4.49,0,0,0-1.4,1,4.65,4.65,0,0,0-1,1.54,5.74,5.74,0,0,0,0,4,4.65,4.65,0,0,0,1,1.54,4.49,4.49,0,0,0,1.4,1A4,4,0,0,0,150,32.49Z"/><path class="cls-2" d="M163.32,21.36a5.82,5.82,0,0,1,2.38.48,5.75,5.75,0,0,1,1.89,1.32,5.91,5.91,0,0,1,1.23,2,7.06,7.06,0,0,1,0,5,5.91,5.91,0,0,1-1.23,2,5.75,5.75,0,0,1-1.89,1.32,6.12,6.12,0,0,1-4.75,0,5.71,5.71,0,0,1-1.88-1.32,6.1,6.1,0,0,1-1.24-2,7.21,7.21,0,0,1,0-5,6.1,6.1,0,0,1,1.24-2A5.71,5.71,0,0,1,161,21.84,5.84,5.84,0,0,1,163.32,21.36Zm0,11.13a4,4,0,0,0,1.65-.35,4.42,4.42,0,0,0,1.41-1,5,5,0,0,0,1-1.54,5.59,5.59,0,0,0,0-4,5,5,0,0,0-1-1.54,4.42,4.42,0,0,0-1.41-1,4.09,4.09,0,0,0-3.31,0,4.27,4.27,0,0,0-1.4,1,4.67,4.67,0,0,0-1,1.54,5.74,5.74,0,0,0,0,4,4.67,4.67,0,0,0,1,1.54,4.27,4.27,0,0,0,1.4,1A4,4,0,0,0,163.32,32.49Z"/><path class="cls-2" d="M180.76,31.44h-.09a5.89,5.89,0,0,1-.7.92,4.1,4.1,0,0,1-1,.78,5.48,5.48,0,0,1-1.25.54,5.25,5.25,0,0,1-1.53.2,5.05,5.05,0,0,1-2.14-.46,5.63,5.63,0,0,1-1.76-1.3,6,6,0,0,1-1.2-2,7.28,7.28,0,0,1,0-5,6,6,0,0,1,1.2-2,5.63,5.63,0,0,1,1.76-1.3,5.05,5.05,0,0,1,2.14-.46,5,5,0,0,1,2.78.72,4.88,4.88,0,0,1,1.66,1.7h.09l-.09-1.63V16.32h1.53V33.5h-1.44Zm-4.27,1.05a4.29,4.29,0,0,0,1.62-.32,4,4,0,0,0,1.37-1,5,5,0,0,0,.94-1.54,6.38,6.38,0,0,0,0-4.11,4.82,4.82,0,0,0-.94-1.54,3.93,3.93,0,0,0-1.37-.95,4.29,4.29,0,0,0-1.62-.32,4,4,0,0,0-3,1.31,4.68,4.68,0,0,0-.93,1.53,5.65,5.65,0,0,0-.35,2,5.74,5.74,0,0,0,.35,2,4.63,4.63,0,0,0,.93,1.54,4.35,4.35,0,0,0,1.37,1A4.12,4.12,0,0,0,176.49,32.49Z"/><path class="cls-2" d="M195.11,16.12a4,4,0,0,1,1.12.14,2.82,2.82,0,0,1,.78.32l-.43,1.34a2.62,2.62,0,0,0-.61-.27,2.78,2.78,0,0,0-.81-.11,2,2,0,0,0-1.41.59,2.28,2.28,0,0,0-.6,1.71v1.9h3.07v1.39h-3.07V33.5h-1.54V23.13H189.4V21.74h2.21v-2a3.92,3.92,0,0,1,.29-1.54,3.31,3.31,0,0,1,1.89-1.81A3.9,3.9,0,0,1,195.11,16.12Z"/><path class="cls-2" d="M203,21.36a5.86,5.86,0,0,1,2.39.48,5.75,5.75,0,0,1,1.89,1.32,6.07,6.07,0,0,1,1.23,2,7.06,7.06,0,0,1,0,5,6.07,6.07,0,0,1-1.23,2,5.75,5.75,0,0,1-1.89,1.32,6.12,6.12,0,0,1-4.75,0,5.61,5.61,0,0,1-1.88-1.32,6.1,6.1,0,0,1-1.24-2,7.21,7.21,0,0,1,0-5,6.1,6.1,0,0,1,1.24-2,5.61,5.61,0,0,1,1.88-1.32A5.82,5.82,0,0,1,203,21.36Zm0,11.13a4,4,0,0,0,1.66-.35,4.27,4.27,0,0,0,1.4-1,4.86,4.86,0,0,0,1-1.54,5.59,5.59,0,0,0,0-4,4.86,4.86,0,0,0-1-1.54,4.27,4.27,0,0,0-1.4-1,4.09,4.09,0,0,0-3.31,0,4.42,4.42,0,0,0-1.41,1,4.81,4.81,0,0,0-1,1.54,5.74,5.74,0,0,0,0,4,4.81,4.81,0,0,0,1,1.54,4.42,4.42,0,0,0,1.41,1A4,4,0,0,0,203,32.49Z"/><path class="cls-2" d="M210.88,33.5V21.74h1.44V23.8h.1a2.83,2.83,0,0,1,.54-1,4.71,4.71,0,0,1,.84-.77,4.81,4.81,0,0,1,1-.51,2.85,2.85,0,0,1,1-.19,3.88,3.88,0,0,1,.91.08,2.44,2.44,0,0,1,.7.28l-.48,1.39a3,3,0,0,0-1.32-.24,2.54,2.54,0,0,0-1.2.3,3.21,3.21,0,0,0-1,.83,4.3,4.3,0,0,0-.7,1.27,4.84,4.84,0,0,0-.26,1.6V33.5Z"/><path class="cls-2" d="M226,24h.1a5.57,5.57,0,0,1,.69-1,5.05,5.05,0,0,1,1-.83,4.82,4.82,0,0,1,1.19-.56,4.49,4.49,0,0,1,1.39-.2,4.88,4.88,0,0,1,1.9.34,3.65,3.65,0,0,1,1.35,1,4.22,4.22,0,0,1,.81,1.51,6.88,6.88,0,0,1,.26,1.93V33.5h-1.53V26.4a3.92,3.92,0,0,0-.84-2.78,3.52,3.52,0,0,0-3.89-.5,3.64,3.64,0,0,0-1.2,1,5.14,5.14,0,0,0-1.08,3.15V33.5h-1.54V21.74H226Z"/><path class="cls-2" d="M242.61,21.36a5.9,5.9,0,0,1,2.39.48,5.71,5.71,0,0,1,1.88,1.32,6.1,6.1,0,0,1,1.24,2,7.21,7.21,0,0,1,0,5,6.1,6.1,0,0,1-1.24,2A5.71,5.71,0,0,1,245,33.4a5.9,5.9,0,0,1-2.39.48,5.8,5.8,0,0,1-4.25-1.8,5.91,5.91,0,0,1-1.23-2,7.06,7.06,0,0,1,0-5,5.91,5.91,0,0,1,1.23-2,5.8,5.8,0,0,1,4.25-1.8Zm0,11.13a4,4,0,0,0,1.66-.35,4.49,4.49,0,0,0,1.4-1,4.67,4.67,0,0,0,1-1.54,5.45,5.45,0,0,0,0-4,4.67,4.67,0,0,0-1-1.54,4.49,4.49,0,0,0-1.4-1,4.11,4.11,0,0,0-3.32,0,4.49,4.49,0,0,0-1.4,1,4.65,4.65,0,0,0-1,1.54,5.74,5.74,0,0,0,0,4,4.65,4.65,0,0,0,1,1.54,4.49,4.49,0,0,0,1.4,1A4,4,0,0,0,242.61,32.49Z"/><path class="cls-2" d="M261.11,33.5l-3.33-9.94-3.29,9.94H253l-3.89-11.76h1.56l3.1,9.67h0L257,21.74h1.63l3.24,9.62h0L265,21.74h1.51L262.6,33.5Z"/></g></g></svg>