<svg width="35" height="35" viewBox="0 0 35 35" fill="none" xmlns="http://www.w3.org/2000/svg">
     <g clip-path="url(#clip0_1499_86)">
        <path d="M14.4341 10.094C14.3043 10.2235 14.2013 10.3774 14.1311 10.5467C14.0608 10.7161 14.0247 10.8977 14.0247 11.081C14.0247 11.2644 14.0608 11.4459 14.1311 11.6153C14.2013 11.7846 14.3043 11.9385 14.4341 12.068L19.8661 17.5L14.4341 22.932C14.1723 23.1938 14.0253 23.5488 14.0253 23.919C14.0253 24.2892 14.1723 24.6442 14.4341 24.906C14.6958 25.1678 15.0509 25.3148 15.4211 25.3148C15.7913 25.3148 16.1463 25.1678 16.4081 24.906L22.8341 18.48C22.9639 18.3505 23.0668 18.1966 23.1371 18.0273C23.2073 17.8579 23.2435 17.6764 23.2435 17.493C23.2435 17.3096 23.2073 17.1281 23.1371 16.9587C23.0668 16.7894 22.9639 16.6355 22.8341 16.506L16.4081 10.08C15.8761 9.54801 14.9801 9.54801 14.4341 10.094Z"
              fill="#1CB393"/>
    </g>
    <defs>
        <clipPath id="clip0_1499_86">
            <rect width="9.8" height="16.8" transform="translate(14 9.10001)"/>
        </clipPath>
    </defs>
</svg>
