<svg xmlns="http://www.w3.org/2000/svg" viewBox="0 0 52 52"><defs><style>.cls-1{fill:#1cb393;}.cls-2{fill:#fff;}</style></defs><title>next</title><g id="Layer_2" data-name="Layer 2"><g id="Capa_1" data-name="Capa 1"><path class="cls-1" d="M26,52h0A26,26,0,0,1,0,26H0A26,26,0,0,1,26,0h0A26,26,0,0,1,52,26h0A26,26,0,0,1,26,52Z"/><path class="cls-2" d="M21.29,39a1,1,0,0,1-.7-1.71L31.88,26,20.59,14.71a1,1,0,0,1,0-1.42,1,1,0,0,1,1.41,0l11.5,11.5a1.71,1.71,0,0,1,0,2.42L22,38.71A1,1,0,0,1,21.29,39Z"/></g></g></svg>