<svg width="322" height="55" viewBox="0 0 322 55" fill="none" xmlns="http://www.w3.org/2000/svg">
<rect width="322" height="55" rx="20" fill="#1CB393"/>
<path d="M79.0566 33V19.88H80.7166V31.58H86.4566V33H79.0566ZM91.9288 33.24C91.0622 33.24 90.2688 33.04 89.5488 32.64C88.8422 32.2267 88.2822 31.6467 87.8688 30.9C87.4555 30.14 87.2488 29.22 87.2488 28.14C87.2488 27.0867 87.4622 26.18 87.8888 25.42C88.3155 24.66 88.8622 24.0733 89.5288 23.66C90.1955 23.2467 90.9022 23.04 91.6488 23.04C92.4755 23.04 93.1755 23.2333 93.7488 23.62C94.3355 23.9933 94.7755 24.52 95.0688 25.2C95.3622 25.88 95.5088 26.68 95.5088 27.6C95.5088 27.7733 95.5022 27.94 95.4888 28.1C95.4888 28.26 95.4688 28.42 95.4288 28.58H88.4288V27.28H94.0288C94.0288 26.3467 93.8222 25.6333 93.4088 25.14C93.0088 24.6333 92.4288 24.38 91.6688 24.38C91.2288 24.38 90.7955 24.5067 90.3688 24.76C89.9422 25 89.5888 25.3933 89.3088 25.94C89.0422 26.4867 88.9088 27.2133 88.9088 28.12C88.9088 28.9467 89.0488 29.64 89.3288 30.2C89.6222 30.76 90.0155 31.1867 90.5088 31.48C91.0022 31.76 91.5422 31.9 92.1288 31.9C92.5955 31.9 93.0288 31.8333 93.4288 31.7C93.8422 31.5667 94.2155 31.3867 94.5488 31.16L95.1488 32.24C94.7222 32.5333 94.2422 32.7733 93.7088 32.96C93.1888 33.1467 92.5955 33.24 91.9288 33.24ZM100.375 33.18C99.3487 33.18 98.6287 32.88 98.2154 32.28C97.8021 31.68 97.5954 30.9 97.5954 29.94V24.62H96.1554V23.38L97.6754 23.28L97.8754 20.16H99.2554V23.28H101.895V24.62H99.2554V29.96C99.2554 30.5467 99.3621 31.0067 99.5754 31.34C99.8021 31.6733 100.195 31.84 100.755 31.84C100.929 31.84 101.109 31.8267 101.295 31.8C101.482 31.76 101.669 31.6933 101.855 31.6L102.215 32.76C101.962 32.88 101.675 32.98 101.355 33.06C101.035 33.14 100.709 33.18 100.375 33.18ZM103.753 24.38L103.293 23.62C103.8 23.2867 104.173 22.9267 104.413 22.54C104.667 22.1533 104.793 21.6733 104.793 21.1L104.573 19.78L105.393 20.8C105.273 20.92 105.153 21.0067 105.033 21.06C104.927 21.1133 104.793 21.14 104.633 21.14C104.353 21.14 104.107 21.0533 103.893 20.88C103.68 20.7067 103.573 20.46 103.573 20.14C103.573 19.7933 103.673 19.52 103.873 19.32C104.073 19.12 104.327 19.02 104.633 19.02C105.033 19.02 105.34 19.18 105.553 19.5C105.78 19.8067 105.893 20.2533 105.893 20.84C105.893 21.64 105.707 22.3333 105.333 22.92C104.973 23.4933 104.447 23.98 103.753 24.38ZM110.149 33.24C109.442 33.24 108.769 33.12 108.129 32.88C107.502 32.6267 106.969 32.28 106.529 31.84L107.289 30.88C107.716 31.2267 108.156 31.4933 108.609 31.68C109.076 31.8667 109.609 31.96 110.209 31.96C110.849 31.96 111.329 31.8133 111.649 31.52C111.969 31.2133 112.129 30.8533 112.129 30.44C112.129 30.1067 112.016 29.8333 111.789 29.62C111.576 29.3933 111.302 29.2067 110.969 29.06C110.649 28.9 110.302 28.7533 109.929 28.62C109.449 28.4467 108.989 28.2467 108.549 28.02C108.109 27.78 107.749 27.4867 107.469 27.14C107.202 26.78 107.069 26.3333 107.069 25.8C107.069 25.0133 107.362 24.36 107.949 23.84C108.549 23.3067 109.376 23.04 110.429 23.04C111.029 23.04 111.589 23.1467 112.109 23.36C112.629 23.56 113.076 23.82 113.449 24.14L112.689 25.08C112.342 24.84 111.989 24.6533 111.629 24.52C111.269 24.3867 110.869 24.32 110.429 24.32C109.816 24.32 109.362 24.46 109.069 24.74C108.789 25.02 108.649 25.3467 108.649 25.72C108.649 26.0133 108.736 26.26 108.909 26.46C109.082 26.6467 109.322 26.8133 109.629 26.96C109.949 27.1067 110.309 27.2467 110.709 27.38C111.216 27.5667 111.696 27.78 112.149 28.02C112.616 28.2467 112.989 28.5467 113.269 28.92C113.562 29.28 113.709 29.7533 113.709 30.34C113.709 30.8733 113.569 31.36 113.289 31.8C113.022 32.2267 112.622 32.5733 112.089 32.84C111.569 33.1067 110.922 33.24 110.149 33.24ZM121.732 33.24C121.025 33.24 120.352 33.12 119.712 32.88C119.085 32.6267 118.552 32.28 118.112 31.84L118.872 30.88C119.299 31.2267 119.739 31.4933 120.192 31.68C120.659 31.8667 121.192 31.96 121.792 31.96C122.432 31.96 122.912 31.8133 123.232 31.52C123.552 31.2133 123.712 30.8533 123.712 30.44C123.712 30.1067 123.599 29.8333 123.372 29.62C123.159 29.3933 122.885 29.2067 122.552 29.06C122.232 28.9 121.885 28.7533 121.512 28.62C121.032 28.4467 120.572 28.2467 120.132 28.02C119.692 27.78 119.332 27.4867 119.052 27.14C118.785 26.78 118.652 26.3333 118.652 25.8C118.652 25.0133 118.945 24.36 119.532 23.84C120.132 23.3067 120.959 23.04 122.012 23.04C122.612 23.04 123.172 23.1467 123.692 23.36C124.212 23.56 124.659 23.82 125.032 24.14L124.272 25.08C123.925 24.84 123.572 24.6533 123.212 24.52C122.852 24.3867 122.452 24.32 122.012 24.32C121.399 24.32 120.945 24.46 120.652 24.74C120.372 25.02 120.232 25.3467 120.232 25.72C120.232 26.0133 120.319 26.26 120.492 26.46C120.665 26.6467 120.905 26.8133 121.212 26.96C121.532 27.1067 121.892 27.2467 122.292 27.38C122.799 27.5667 123.279 27.78 123.732 28.02C124.199 28.2467 124.572 28.5467 124.852 28.92C125.145 29.28 125.292 29.7533 125.292 30.34C125.292 30.8733 125.152 31.36 124.872 31.8C124.605 32.2267 124.205 32.5733 123.672 32.84C123.152 33.1067 122.505 33.24 121.732 33.24ZM131.111 33.24C130.244 33.24 129.451 33.04 128.731 32.64C128.024 32.2267 127.464 31.6467 127.051 30.9C126.638 30.14 126.431 29.22 126.431 28.14C126.431 27.0867 126.644 26.18 127.071 25.42C127.498 24.66 128.044 24.0733 128.711 23.66C129.378 23.2467 130.084 23.04 130.831 23.04C131.658 23.04 132.358 23.2333 132.931 23.62C133.518 23.9933 133.958 24.52 134.251 25.2C134.544 25.88 134.691 26.68 134.691 27.6C134.691 27.7733 134.684 27.94 134.671 28.1C134.671 28.26 134.651 28.42 134.611 28.58H127.611V27.28H133.211C133.211 26.3467 133.004 25.6333 132.591 25.14C132.191 24.6333 131.611 24.38 130.851 24.38C130.411 24.38 129.978 24.5067 129.551 24.76C129.124 25 128.771 25.3933 128.491 25.94C128.224 26.4867 128.091 27.2133 128.091 28.12C128.091 28.9467 128.231 29.64 128.511 30.2C128.804 30.76 129.198 31.1867 129.691 31.48C130.184 31.76 130.724 31.9 131.311 31.9C131.778 31.9 132.211 31.8333 132.611 31.7C133.024 31.5667 133.398 31.3867 133.731 31.16L134.331 32.24C133.904 32.5333 133.424 32.7733 132.891 32.96C132.371 33.1467 131.778 33.24 131.111 33.24ZM140.633 33.24C139.766 33.24 138.973 33.04 138.253 32.64C137.546 32.2267 136.986 31.6467 136.573 30.9C136.159 30.14 135.953 29.22 135.953 28.14C135.953 27.0867 136.166 26.18 136.593 25.42C137.019 24.66 137.566 24.0733 138.233 23.66C138.899 23.2467 139.606 23.04 140.353 23.04C141.179 23.04 141.879 23.2333 142.453 23.62C143.039 23.9933 143.479 24.52 143.773 25.2C144.066 25.88 144.213 26.68 144.213 27.6C144.213 27.7733 144.206 27.94 144.193 28.1C144.193 28.26 144.173 28.42 144.133 28.58H137.133V27.28H142.733C142.733 26.3467 142.526 25.6333 142.113 25.14C141.713 24.6333 141.133 24.38 140.373 24.38C139.933 24.38 139.499 24.5067 139.073 24.76C138.646 25 138.293 25.3933 138.013 25.94C137.746 26.4867 137.613 27.2133 137.613 28.12C137.613 28.9467 137.753 29.64 138.033 30.2C138.326 30.76 138.719 31.1867 139.213 31.48C139.706 31.76 140.246 31.9 140.833 31.9C141.299 31.9 141.733 31.8333 142.133 31.7C142.546 31.5667 142.919 31.3867 143.253 31.16L143.853 32.24C143.426 32.5333 142.946 32.7733 142.413 32.96C141.893 33.1467 141.299 33.24 140.633 33.24ZM149.819 33V18.76H151.459V22.64L151.399 24.64C151.865 24.2 152.352 23.8267 152.859 23.52C153.379 23.2 153.972 23.04 154.639 23.04C155.665 23.04 156.412 23.3667 156.879 24.02C157.359 24.66 157.599 25.6 157.599 26.84V33H155.959V27.06C155.959 26.14 155.812 25.48 155.519 25.08C155.239 24.6667 154.772 24.46 154.119 24.46C153.625 24.46 153.179 24.5867 152.779 24.84C152.392 25.0933 151.952 25.4667 151.459 25.96V33H149.819ZM164.077 33.24C163.291 33.24 162.551 33.04 161.857 32.64C161.177 32.24 160.624 31.66 160.197 30.9C159.784 30.14 159.577 29.2267 159.577 28.16C159.577 27.0667 159.784 26.14 160.197 25.38C160.624 24.62 161.177 24.04 161.857 23.64C162.551 23.24 163.291 23.04 164.077 23.04C164.877 23.04 165.617 23.24 166.297 23.64C166.977 24.04 167.524 24.62 167.937 25.38C168.364 26.14 168.577 27.0667 168.577 28.16C168.577 29.2267 168.364 30.14 167.937 30.9C167.524 31.66 166.977 32.24 166.297 32.64C165.617 33.04 164.877 33.24 164.077 33.24ZM164.077 31.88C164.637 31.88 165.131 31.7267 165.557 31.42C165.984 31.1 166.311 30.66 166.537 30.1C166.764 29.54 166.877 28.8933 166.877 28.16C166.877 27.4133 166.764 26.76 166.537 26.2C166.311 25.6267 165.984 25.1867 165.557 24.88C165.131 24.56 164.637 24.4 164.077 24.4C163.517 24.4 163.024 24.56 162.597 24.88C162.184 25.1867 161.857 25.6267 161.617 26.2C161.391 26.76 161.277 27.4133 161.277 28.16C161.277 28.8933 161.391 29.54 161.617 30.1C161.857 30.66 162.184 31.1 162.597 31.42C163.024 31.7267 163.517 31.88 164.077 31.88ZM172.199 33L169.499 23.28H171.219L172.639 28.9C172.746 29.34 172.846 29.78 172.939 30.22C173.032 30.66 173.119 31.14 173.199 31.66H173.279C173.386 31.14 173.486 30.66 173.579 30.22C173.686 29.78 173.792 29.34 173.899 28.9L175.339 23.28H177.139L178.599 28.9C178.719 29.34 178.826 29.78 178.919 30.22C179.026 30.66 179.132 31.14 179.239 31.66H179.319C179.426 31.14 179.526 30.66 179.619 30.22C179.712 29.78 179.806 29.34 179.899 28.9L181.319 23.28H182.919L180.299 33H178.159L176.859 27.8C176.752 27.3467 176.646 26.9 176.539 26.46C176.446 26.0067 176.346 25.4933 176.239 24.92H176.159C176.066 25.4933 175.966 26.0067 175.859 26.46C175.766 26.9133 175.659 27.36 175.539 27.8L174.239 33H172.199ZM191.298 33.18C190.271 33.18 189.551 32.88 189.138 32.28C188.725 31.68 188.518 30.9 188.518 29.94V24.62H187.078V23.38L188.598 23.28L188.798 20.16H190.178V23.28H192.818V24.62H190.178V29.96C190.178 30.5467 190.285 31.0067 190.498 31.34C190.725 31.6733 191.118 31.84 191.678 31.84C191.851 31.84 192.031 31.8267 192.218 31.8C192.405 31.76 192.591 31.6933 192.778 31.6L193.138 32.76C192.885 32.88 192.598 32.98 192.278 33.06C191.958 33.14 191.631 33.18 191.298 33.18ZM198.102 33.24C197.316 33.24 196.576 33.04 195.882 32.64C195.202 32.24 194.649 31.66 194.222 30.9C193.809 30.14 193.602 29.2267 193.602 28.16C193.602 27.0667 193.809 26.14 194.222 25.38C194.649 24.62 195.202 24.04 195.882 23.64C196.576 23.24 197.316 23.04 198.102 23.04C198.902 23.04 199.642 23.24 200.322 23.64C201.002 24.04 201.549 24.62 201.962 25.38C202.389 26.14 202.602 27.0667 202.602 28.16C202.602 29.2267 202.389 30.14 201.962 30.9C201.549 31.66 201.002 32.24 200.322 32.64C199.642 33.04 198.902 33.24 198.102 33.24ZM198.102 31.88C198.662 31.88 199.156 31.7267 199.582 31.42C200.009 31.1 200.336 30.66 200.562 30.1C200.789 29.54 200.902 28.8933 200.902 28.16C200.902 27.4133 200.789 26.76 200.562 26.2C200.336 25.6267 200.009 25.1867 199.582 24.88C199.156 24.56 198.662 24.4 198.102 24.4C197.542 24.4 197.049 24.56 196.622 24.88C196.209 25.1867 195.882 25.6267 195.642 26.2C195.416 26.76 195.302 27.4133 195.302 28.16C195.302 28.8933 195.416 29.54 195.642 30.1C195.882 30.66 196.209 31.1 196.622 31.42C197.049 31.7267 197.542 31.88 198.102 31.88ZM211.686 33.24C210.459 33.24 209.479 32.8 208.746 31.92C208.026 31.0267 207.666 29.7733 207.666 28.16C207.666 27.1067 207.859 26.2 208.246 25.44C208.646 24.6667 209.166 24.0733 209.806 23.66C210.446 23.2467 211.139 23.04 211.886 23.04C212.459 23.04 212.946 23.14 213.346 23.34C213.759 23.5267 214.179 23.8 214.606 24.16L214.526 22.5V18.76H216.186V33H214.826L214.686 31.86H214.626C214.253 32.2333 213.813 32.56 213.306 32.84C212.799 33.1067 212.259 33.24 211.686 33.24ZM212.046 31.86C212.499 31.86 212.926 31.7467 213.326 31.52C213.726 31.2933 214.126 30.96 214.526 30.52V25.44C214.126 25.0667 213.733 24.8067 213.346 24.66C212.959 24.5 212.566 24.42 212.166 24.42C211.646 24.42 211.173 24.58 210.746 24.9C210.333 25.2067 209.999 25.64 209.746 26.2C209.493 26.7467 209.366 27.3933 209.366 28.14C209.366 29.3 209.599 30.2133 210.066 30.88C210.533 31.5333 211.193 31.86 212.046 31.86ZM222.84 33.24C222.053 33.24 221.313 33.04 220.62 32.64C219.94 32.24 219.387 31.66 218.96 30.9C218.547 30.14 218.34 29.2267 218.34 28.16C218.34 27.0667 218.547 26.14 218.96 25.38C219.387 24.62 219.94 24.04 220.62 23.64C221.313 23.24 222.053 23.04 222.84 23.04C223.64 23.04 224.38 23.24 225.06 23.64C225.74 24.04 226.287 24.62 226.7 25.38C227.127 26.14 227.34 27.0667 227.34 28.16C227.34 29.2267 227.127 30.14 226.7 30.9C226.287 31.66 225.74 32.24 225.06 32.64C224.38 33.04 223.64 33.24 222.84 33.24ZM222.84 31.88C223.4 31.88 223.893 31.7267 224.32 31.42C224.747 31.1 225.073 30.66 225.3 30.1C225.527 29.54 225.64 28.8933 225.64 28.16C225.64 27.4133 225.527 26.76 225.3 26.2C225.073 25.6267 224.747 25.1867 224.32 24.88C223.893 24.56 223.4 24.4 222.84 24.4C222.28 24.4 221.787 24.56 221.36 24.88C220.947 25.1867 220.62 25.6267 220.38 26.2C220.153 26.76 220.04 27.4133 220.04 28.16C220.04 28.8933 220.153 29.54 220.38 30.1C220.62 30.66 220.947 31.1 221.36 31.42C221.787 31.7267 222.28 31.88 222.84 31.88ZM233.104 33V23.28H234.744V33H233.104ZM233.924 21.28C233.604 21.28 233.337 21.18 233.124 20.98C232.924 20.78 232.824 20.52 232.824 20.2C232.824 19.88 232.924 19.62 233.124 19.42C233.337 19.22 233.604 19.12 233.924 19.12C234.244 19.12 234.504 19.22 234.704 19.42C234.917 19.62 235.024 19.88 235.024 20.2C235.024 20.52 234.917 20.78 234.704 20.98C234.504 21.18 234.244 21.28 233.924 21.28ZM240.686 33.18C239.659 33.18 238.939 32.88 238.526 32.28C238.112 31.68 237.906 30.9 237.906 29.94V24.62H236.466V23.38L237.986 23.28L238.186 20.16H239.566V23.28H242.206V24.62H239.566V29.96C239.566 30.5467 239.672 31.0067 239.886 31.34C240.112 31.6733 240.506 31.84 241.066 31.84C241.239 31.84 241.419 31.8267 241.606 31.8C241.792 31.76 241.979 31.6933 242.166 31.6L242.526 32.76C242.272 32.88 241.986 32.98 241.666 33.06C241.346 33.14 241.019 33.18 240.686 33.18Z" fill="white"/>
</svg>
