<svg width="60" height="60" viewBox="0 0 60 60" fill="none" xmlns="http://www.w3.org/2000/svg">
<circle cx="30" cy="30" r="30" fill="#1CB393"/>
<g clip-path="url(#clip0_1300_2101)">
<path d="M30.442 20.1474V17.4341C30.442 16.752 29.6235 16.4185 29.1536 16.9036L24.9094 21.1326C24.6063 21.4358 24.6063 21.9057 24.9094 22.2088L29.1385 26.4379C29.6235 26.9078 30.442 26.5743 30.442 25.8922V23.179C35.4593 23.179 39.5368 27.2564 39.5368 32.2737C39.5368 36.3966 36.7629 39.883 33.0037 40.9895C32.3671 41.1714 31.9578 41.7777 31.9578 42.4295C31.9578 43.4147 32.8976 44.1878 33.8526 43.8998C36.3672 43.1651 38.5759 41.6349 40.1473 39.5388C41.7188 37.4426 42.5682 34.8935 42.5684 32.2737C42.5684 25.5739 37.1418 20.1474 30.442 20.1474ZM21.3473 32.2737C21.3473 30.2425 22.0143 28.363 23.1511 26.832C23.6058 26.2257 23.5452 25.392 23.0147 24.8463C22.378 24.2097 21.2867 24.2703 20.741 24.9979C19.5647 26.564 18.7857 28.3919 18.4708 30.3251C18.1559 32.2582 18.3145 34.2389 18.933 36.0973C19.5515 37.9557 20.6114 39.6364 22.0219 40.9954C23.4324 42.3543 25.1514 43.3509 27.0315 43.8998C27.9865 44.1878 28.9263 43.4147 28.9263 42.4295C28.9263 41.7777 28.517 41.1714 27.8804 40.9895C24.1212 39.883 21.3473 36.3966 21.3473 32.2737Z" fill="white"/>
</g>
<defs>
<clipPath id="clip0_1300_2101">
<rect width="25.7684" height="28.8" fill="white" transform="translate(16.8 15.6)"/>
</clipPath>
</defs>
</svg>
