<svg width="60" height="60" viewBox="0 0 60 60" fill="none" xmlns="http://www.w3.org/2000/svg">
<circle cx="30" cy="30" r="30" fill="#1CB393"/>
<g clip-path="url(#clip0_1300_2107)">
<path d="M41.2001 31.6V39.6C41.2001 40.48 40.4801 41.2 39.6001 41.2H20.4001C19.5201 41.2 18.8001 40.48 18.8001 39.6V31.6C18.8001 30.72 18.0801 30 17.2001 30C16.3201 30 15.6001 30.72 15.6001 31.6V41.2C15.6001 42.96 17.0401 44.4 18.8001 44.4H41.2001C42.9601 44.4 44.4001 42.96 44.4001 41.2V31.6C44.4001 30.72 43.6801 30 42.8001 30C41.9201 30 41.2001 30.72 41.2001 31.6ZM31.6001 31.072L34.6081 28.064C34.7562 27.9159 34.9321 27.7984 35.1256 27.7182C35.3192 27.638 35.5266 27.5968 35.7361 27.5968C35.9456 27.5968 36.153 27.638 36.3466 27.7182C36.5401 27.7984 36.716 27.9159 36.8641 28.064C37.0122 28.2121 37.1297 28.388 37.2099 28.5815C37.2901 28.7751 37.3313 28.9825 37.3313 29.192C37.3313 29.4015 37.2901 29.6089 37.2099 29.8025C37.1297 29.996 37.0122 30.1719 36.8641 30.32L31.1201 36.064C30.9721 36.2123 30.7963 36.33 30.6027 36.4103C30.4091 36.4906 30.2016 36.5319 29.9921 36.5319C29.7825 36.5319 29.5751 36.4906 29.3815 36.4103C29.1879 36.33 29.0121 36.2123 28.8641 36.064L23.1201 30.32C22.8209 30.0208 22.6529 29.6151 22.6529 29.192C22.6529 28.7689 22.8209 28.3632 23.1201 28.064C23.4193 27.7648 23.825 27.5968 24.2481 27.5968C24.6712 27.5968 25.0769 27.7648 25.3761 28.064L28.4001 31.072V17.2C28.4001 16.32 29.1201 15.6 30.0001 15.6C30.8801 15.6 31.6001 16.32 31.6001 17.2V31.072Z" fill="white"/>
</g>
<defs>
<clipPath id="clip0_1300_2107">
<rect width="28.8" height="28.8" fill="white" transform="translate(15.6001 15.6)"/>
</clipPath>
</defs>
</svg>
