<svg xmlns="http://www.w3.org/2000/svg" viewBox="0 0 322 55"><defs><style>.cls-1{fill:#1cb393;}.cls-2{fill:#fff;}</style></defs><title>yes-lets-see</title><g id="Layer_2" data-name="Layer 2"><g id="Layer_1-2" data-name="Layer 1"><rect class="cls-1" width="322" height="55" rx="20"/><path class="cls-2" d="M74.46,36.09V28.32l-5.93-9.41h1.8l4.85,7.82h.09L80,18.91h1.8L76,28.32v7.77Z"/><path class="cls-2" d="M91.45,33.31a5.91,5.91,0,0,1-.79,1.22,5.15,5.15,0,0,1-1.12,1,5.1,5.1,0,0,1-1.45.68,6,6,0,0,1-1.8.26A5.87,5.87,0,0,1,83.94,36a5.46,5.46,0,0,1-1.86-1.31,5.86,5.86,0,0,1-1.21-2,7,7,0,0,1-.44-2.51,7.38,7.38,0,0,1,.4-2.41,5.85,5.85,0,0,1,1.14-2A5.37,5.37,0,0,1,86.15,24a5.81,5.81,0,0,1,2.29.44,5,5,0,0,1,1.74,1.25,5.65,5.65,0,0,1,1.11,1.93,7.37,7.37,0,0,1,.4,2.5v.14a.3.3,0,0,0,0,.12v.15H82a5,5,0,0,0,.44,2.08,4.28,4.28,0,0,0,1,1.43,4,4,0,0,0,1.39.83,4.46,4.46,0,0,0,1.49.26,3.67,3.67,0,0,0,2.35-.68,5.59,5.59,0,0,0,1.44-1.74Zm-1.37-4.13a4.35,4.35,0,0,0-.24-1.25,4,4,0,0,0-.67-1.25,3.68,3.68,0,0,0-1.21-1,4.19,4.19,0,0,0-1.86-.38,3.85,3.85,0,0,0-1.39.25,3.88,3.88,0,0,0-1.22.73,4.13,4.13,0,0,0-.91,1.2,5,5,0,0,0-.49,1.66Z"/><path class="cls-2" d="M98.05,36.48a5.46,5.46,0,0,1-1.76-.28,4.9,4.9,0,0,1-1.42-.74,5.7,5.7,0,0,1-1.06-1.08,5.33,5.33,0,0,1-.68-1.29l1.37-.57A3.94,3.94,0,0,0,96,34.45a3.68,3.68,0,0,0,2.1.66,3.56,3.56,0,0,0,2.23-.63A1.81,1.81,0,0,0,101.1,33a1.91,1.91,0,0,0-.12-.68,1.62,1.62,0,0,0-.43-.58,3,3,0,0,0-.84-.51,8.76,8.76,0,0,0-1.35-.42l-1.63-.38a11.57,11.57,0,0,1-1.14-.37,4.84,4.84,0,0,1-1.07-.6,3.06,3.06,0,0,1-.78-.9,2.46,2.46,0,0,1-.3-1.23,2.76,2.76,0,0,1,.37-1.44,3.37,3.37,0,0,1,1-1.05,4.92,4.92,0,0,1,1.45-.66A6,6,0,0,1,98,24a5.68,5.68,0,0,1,1.44.18,5.26,5.26,0,0,1,1.29.51,4.08,4.08,0,0,1,1,.86,3.94,3.94,0,0,1,.72,1.18l-1.34.56a3.16,3.16,0,0,0-1.31-1.47,3.93,3.93,0,0,0-1.91-.45,4.06,4.06,0,0,0-1,.13,3.36,3.36,0,0,0-.93.38,2.21,2.21,0,0,0-.66.63,1.47,1.47,0,0,0-.25.82,1.3,1.3,0,0,0,.64,1.16,6.07,6.07,0,0,0,1.79.69l1.72.43a5.75,5.75,0,0,1,2.66,1.31,2.79,2.79,0,0,1,.85,2,3,3,0,0,1-.33,1.39,3.35,3.35,0,0,1-.93,1.14,4.68,4.68,0,0,1-1.47.78A5.84,5.84,0,0,1,98.05,36.48Z"/><path class="cls-2" d="M105.73,36.09a1.24,1.24,0,0,1-.89-.34,1.14,1.14,0,0,1,0-1.66,1.27,1.27,0,0,1,.89-.33,1.25,1.25,0,0,1,.88.33,1.18,1.18,0,0,1,0,1.66A1.21,1.21,0,0,1,105.73,36.09Z"/><path class="cls-2" d="M115.26,36.09V18.91h1.53V36.09Z"/><path class="cls-2" d="M129.82,33.31a5.53,5.53,0,0,1-.79,1.22,5.34,5.34,0,0,1-1.11,1,5.16,5.16,0,0,1-1.46.68,6,6,0,0,1-1.8.26,5.91,5.91,0,0,1-2.35-.47,5.46,5.46,0,0,1-1.86-1.31,6,6,0,0,1-1.21-2,7,7,0,0,1-.43-2.51,7.38,7.38,0,0,1,.39-2.41,6.2,6.2,0,0,1,1.14-2,5.64,5.64,0,0,1,1.8-1.36,5.57,5.57,0,0,1,2.38-.5,5.77,5.77,0,0,1,2.29.44,5,5,0,0,1,1.74,1.25,5.83,5.83,0,0,1,1.12,1.93,7.62,7.62,0,0,1,.39,2.5v.14a.74.74,0,0,0,0,.12v.15h-9.67a5,5,0,0,0,.43,2.08,4.42,4.42,0,0,0,1,1.43,4.05,4.05,0,0,0,1.39.83,4.5,4.5,0,0,0,1.49.26,3.65,3.65,0,0,0,2.35-.68,5.59,5.59,0,0,0,1.44-1.74Zm-1.36-4.13a5.17,5.17,0,0,0-.24-1.25,4,4,0,0,0-.68-1.25,3.58,3.58,0,0,0-1.21-1,4.13,4.13,0,0,0-1.86-.38,3.88,3.88,0,0,0-1.39.25,3.84,3.84,0,0,0-1.21.73,4,4,0,0,0-.91,1.2,5,5,0,0,0-.5,1.66Z"/><path class="cls-2" d="M133.16,25.72H131V24.33h2.14v-3.6h1.54v3.6h2.92v1.39H134.7V33a2.13,2.13,0,0,0,.5,1.57,1.48,1.48,0,0,0,1.15.54A2.77,2.77,0,0,0,137,35a3.87,3.87,0,0,0,.56-.2l.48,1.32a3.66,3.66,0,0,1-.83.27,4.78,4.78,0,0,1-1,.09,3,3,0,0,1-2.12-.81,2.93,2.93,0,0,1-.67-1,4,4,0,0,1-.24-1.46Z"/><path class="cls-2" d="M139.74,22.53l1.1-1.65a1.42,1.42,0,0,1-.58-.39,1.08,1.08,0,0,1-.26-.74,1.21,1.21,0,0,1,.35-.88,1.18,1.18,0,0,1,.87-.35,1.23,1.23,0,0,1,.89.35,1.18,1.18,0,0,1,.36.88,1.44,1.44,0,0,1-.14.62A5.82,5.82,0,0,1,142,21l-1.46,2.11Z"/><path class="cls-2" d="M148,36.48a5.46,5.46,0,0,1-1.76-.28,4.9,4.9,0,0,1-1.42-.74,5.7,5.7,0,0,1-1.06-1.08,5.33,5.33,0,0,1-.68-1.29l1.37-.57a3.94,3.94,0,0,0,1.45,1.93,3.68,3.68,0,0,0,2.1.66,3.56,3.56,0,0,0,2.23-.63,1.81,1.81,0,0,0,.82-1.48,1.91,1.91,0,0,0-.12-.68,1.62,1.62,0,0,0-.43-.58,3,3,0,0,0-.84-.51,8.76,8.76,0,0,0-1.35-.42l-1.63-.38a11.57,11.57,0,0,1-1.14-.37,4.84,4.84,0,0,1-1.07-.6,3.06,3.06,0,0,1-.78-.9,2.46,2.46,0,0,1-.3-1.23,2.86,2.86,0,0,1,.37-1.44,3.37,3.37,0,0,1,1-1.05,4.92,4.92,0,0,1,1.45-.66,6,6,0,0,1,1.68-.23,5.68,5.68,0,0,1,1.44.18,5.26,5.26,0,0,1,1.29.51,4.08,4.08,0,0,1,1,.86,3.74,3.74,0,0,1,.72,1.18l-1.34.56a3.16,3.16,0,0,0-1.31-1.47,3.93,3.93,0,0,0-1.91-.45,4.06,4.06,0,0,0-1,.13,3.36,3.36,0,0,0-.93.38,2.21,2.21,0,0,0-.66.63,1.47,1.47,0,0,0-.25.82,1.3,1.3,0,0,0,.64,1.16,6.07,6.07,0,0,0,1.79.69l1.73.43a5.76,5.76,0,0,1,2.65,1.31,2.79,2.79,0,0,1,.85,2,3,3,0,0,1-.33,1.39,3.35,3.35,0,0,1-.93,1.14,4.68,4.68,0,0,1-1.47.78A5.84,5.84,0,0,1,148,36.48Z"/><path class="cls-2" d="M164.43,36.48a5.46,5.46,0,0,1-1.76-.28,4.9,4.9,0,0,1-1.42-.74,5.36,5.36,0,0,1-1.05-1.08,5,5,0,0,1-.69-1.29l1.37-.57a3.94,3.94,0,0,0,1.45,1.93,3.68,3.68,0,0,0,2.1.66,3.54,3.54,0,0,0,2.23-.63,1.81,1.81,0,0,0,.82-1.48,1.91,1.91,0,0,0-.12-.68,1.51,1.51,0,0,0-.43-.58,3,3,0,0,0-.84-.51,8.42,8.42,0,0,0-1.35-.42l-1.63-.38a11.57,11.57,0,0,1-1.14-.37,4.84,4.84,0,0,1-1.07-.6,3.06,3.06,0,0,1-.78-.9,2.46,2.46,0,0,1-.3-1.23,2.76,2.76,0,0,1,.38-1.44,3.23,3.23,0,0,1,1-1.05,4.87,4.87,0,0,1,1.46-.66,5.88,5.88,0,0,1,1.68-.23,5.8,5.8,0,0,1,1.44.18,5.35,5.35,0,0,1,1.28.51,4.08,4.08,0,0,1,1,.86,3.74,3.74,0,0,1,.72,1.18l-1.34.56a3.16,3.16,0,0,0-1.31-1.47,3.93,3.93,0,0,0-1.91-.45,4.06,4.06,0,0,0-1,.13,3.3,3.3,0,0,0-.92.38,2,2,0,0,0-.66.63,1.4,1.4,0,0,0-.26.82,1.32,1.32,0,0,0,.64,1.16,6.07,6.07,0,0,0,1.79.69l1.73.43a5.71,5.71,0,0,1,2.65,1.31,2.75,2.75,0,0,1,.85,2,3.15,3.15,0,0,1-.32,1.39,3.5,3.5,0,0,1-.94,1.14,4.74,4.74,0,0,1-1.46.78A6,6,0,0,1,164.43,36.48Z"/><path class="cls-2" d="M181.5,33.31a6,6,0,0,1-.8,1.22,5.34,5.34,0,0,1-1.11,1,5.23,5.23,0,0,1-1.45.68,6.07,6.07,0,0,1-1.8.26A5.92,5.92,0,0,1,174,36a5.46,5.46,0,0,1-1.86-1.31,6,6,0,0,1-1.21-2,7,7,0,0,1-.43-2.51,7.13,7.13,0,0,1,.4-2.41,5.85,5.85,0,0,1,1.14-2,5.43,5.43,0,0,1,1.8-1.36,5.49,5.49,0,0,1,2.37-.5,5.77,5.77,0,0,1,2.29.44,5,5,0,0,1,1.74,1.25,5.67,5.67,0,0,1,1.12,1.93,7.62,7.62,0,0,1,.4,2.5v.14a.35.35,0,0,0,0,.12v.15H172a5.16,5.16,0,0,0,.43,2.08,4.42,4.42,0,0,0,1,1.43,4,4,0,0,0,1.4.83,4.4,4.4,0,0,0,1.48.26,3.68,3.68,0,0,0,2.36-.68,5.88,5.88,0,0,0,1.44-1.74Zm-1.37-4.13a5.17,5.17,0,0,0-.24-1.25,4.21,4.21,0,0,0-.67-1.25,3.72,3.72,0,0,0-1.22-1,4.13,4.13,0,0,0-1.86-.38,3.88,3.88,0,0,0-1.39.25,3.84,3.84,0,0,0-1.21.73,4.13,4.13,0,0,0-.91,1.2,5,5,0,0,0-.49,1.66Z"/><path class="cls-2" d="M194.29,33.31a6.36,6.36,0,0,1-.79,1.22,5.66,5.66,0,0,1-1.12,1,5.1,5.1,0,0,1-1.45.68,6.07,6.07,0,0,1-1.8.26,6,6,0,0,1-2.36-.47,5.32,5.32,0,0,1-1.85-1.31,5.89,5.89,0,0,1-1.22-2,7.22,7.22,0,0,1-.43-2.51,7.13,7.13,0,0,1,.4-2.41,5.85,5.85,0,0,1,1.14-2,5.43,5.43,0,0,1,1.8-1.36A5.49,5.49,0,0,1,189,24a5.77,5.77,0,0,1,2.29.44A4.79,4.79,0,0,1,193,25.64a5.51,5.51,0,0,1,1.12,1.93,7.62,7.62,0,0,1,.4,2.5v.14a.35.35,0,0,0,0,.12v.15h-9.67a5.16,5.16,0,0,0,.43,2.08,4.42,4.42,0,0,0,1,1.43,4,4,0,0,0,1.4.83,4.4,4.4,0,0,0,1.48.26,3.68,3.68,0,0,0,2.36-.68A5.88,5.88,0,0,0,193,32.66Zm-1.37-4.13a5.17,5.17,0,0,0-.24-1.25,4,4,0,0,0-.67-1.25,3.72,3.72,0,0,0-1.22-1,4.13,4.13,0,0,0-1.86-.38,3.92,3.92,0,0,0-1.39.25,3.84,3.84,0,0,0-1.21.73,4.13,4.13,0,0,0-.91,1.2,5,5,0,0,0-.49,1.66Z"/><path class="cls-2" d="M203.62,25.72h-2.13V24.33h2.13v-3.6h1.54v3.6h2.93v1.39h-2.93V33a2.17,2.17,0,0,0,.5,1.57,1.5,1.5,0,0,0,1.15.54,2.77,2.77,0,0,0,.62-.06,3.87,3.87,0,0,0,.56-.2l.48,1.32a3.66,3.66,0,0,1-.83.27,4.78,4.78,0,0,1-1,.09,3,3,0,0,1-2.12-.81,3.07,3.07,0,0,1-.67-1,4,4,0,0,1-.24-1.46Z"/><path class="cls-2" d="M210.54,18.91h1.53v5.81l-.1,1.87h.1a4.81,4.81,0,0,1,1.63-1.9,4.51,4.51,0,0,1,2.59-.74,4.7,4.7,0,0,1,1.92.36,3.71,3.71,0,0,1,1.36,1,4.08,4.08,0,0,1,.79,1.52,6.77,6.77,0,0,1,.25,1.9v7.37h-1.53V29a3.92,3.92,0,0,0-.84-2.75,3,3,0,0,0-2.31-.9,3.15,3.15,0,0,0-1.53.38,4.33,4.33,0,0,0-2,2.48,5.31,5.31,0,0,0-.29,1.72v6.17h-1.53Z"/><path class="cls-2" d="M233.67,33.31a5.91,5.91,0,0,1-.79,1.22,5.15,5.15,0,0,1-1.12,1,5.1,5.1,0,0,1-1.45.68,6,6,0,0,1-1.8.26,5.87,5.87,0,0,1-2.35-.47,5.46,5.46,0,0,1-1.86-1.31,6,6,0,0,1-1.21-2,7,7,0,0,1-.44-2.51,7.38,7.38,0,0,1,.4-2.41,5.85,5.85,0,0,1,1.14-2,5.64,5.64,0,0,1,1.8-1.36,5.54,5.54,0,0,1,2.38-.5,5.81,5.81,0,0,1,2.29.44,5,5,0,0,1,1.74,1.25,5.65,5.65,0,0,1,1.11,1.93,7.37,7.37,0,0,1,.4,2.5v.14a.3.3,0,0,0,0,.12v.15h-9.68a5,5,0,0,0,.44,2.08,4.28,4.28,0,0,0,1,1.43,4,4,0,0,0,1.39.83,4.46,4.46,0,0,0,1.49.26,3.67,3.67,0,0,0,2.35-.68,5.59,5.59,0,0,0,1.44-1.74Zm-1.37-4.13a4.35,4.35,0,0,0-.24-1.25,4,4,0,0,0-.67-1.25,3.68,3.68,0,0,0-1.21-1,4.19,4.19,0,0,0-1.86-.38,3.85,3.85,0,0,0-1.39.25,3.88,3.88,0,0,0-1.22.73,4.13,4.13,0,0,0-.91,1.2,5,5,0,0,0-.49,1.66Z"/><path class="cls-2" d="M236.05,24.33h1.44v2.21h.09a4.39,4.39,0,0,1,.65-1,5.14,5.14,0,0,1,.92-.82,4.61,4.61,0,0,1,1.13-.57,4.15,4.15,0,0,1,1.26-.2,3.6,3.6,0,0,1,2.4.77,3.74,3.74,0,0,1,1.27,1.94,5.3,5.3,0,0,1,1.66-1.93,4.3,4.3,0,0,1,2.59-.78,4.15,4.15,0,0,1,1.81.35,3.25,3.25,0,0,1,1.25,1,3.91,3.91,0,0,1,.72,1.49,7.37,7.37,0,0,1,.23,1.87v7.46h-1.54v-7.2a4.37,4.37,0,0,0-.67-2.65,2.54,2.54,0,0,0-2.18-.9,2.87,2.87,0,0,0-1.45.37,3.69,3.69,0,0,0-1.13,1,4.58,4.58,0,0,0-.72,1.41,5.49,5.49,0,0,0-.25,1.67v6.31H244V28.94a4.47,4.47,0,0,0-.68-2.7,2.54,2.54,0,0,0-2.15-.9,2.94,2.94,0,0,0-1.48.38,3.72,3.72,0,0,0-1.13,1,5,5,0,0,0-.72,1.47,6.17,6.17,0,0,0-.25,1.72v6.14h-1.53Z"/></g></g></svg>